<svg width="174" height="116" viewBox="0 0 174 116" fill="none" xmlns="http://www.w3.org/2000/svg">
<path fill-rule="evenodd" clip-rule="evenodd" d="M162.499 93.7777V57.3964C162.499 54.1476 161.263 51.0207 159.041 48.6506L156.197 45.6174C157.024 45.0734 158.003 44.8197 158.993 44.8084C163.78 44.7534 171.205 43.3797 173.251 38.2366C173.641 37.2562 173.422 36.145 172.727 35.3511C170.099 32.3487 163.58 28.3009 152.089 29.2057C150.663 29.3986 148.284 31.2526 148.831 36.9494L134.369 5.20858C133.48 3.25758 131.62 1.92906 129.483 1.76167C119.363 0.969178 102.469 0.132812 86.3134 0.132812C73.1393 0.132812 54.8006 0.965201 44.6519 1.75601C42.5151 1.92252 40.6641 3.25976 39.785 5.21453L25.4902 37.0008C26.0559 31.2638 23.6672 29.3992 22.2373 29.2057C10.7462 28.3009 4.22713 32.3487 1.59874 35.3511C0.903756 36.145 0.684703 37.2562 1.07478 38.2366C3.1212 43.3797 10.5457 44.7534 15.333 44.8084C16.2479 44.8189 17.1536 45.0363 17.9382 45.4984L14.4519 49.0383C12.096 51.4305 10.7754 54.6533 10.7754 58.0108L10.775 93.3452C10.7749 97.7472 14.0692 101.38 18.327 101.912C18.2749 102.065 18.2467 102.229 18.2467 102.399V112.144C18.2467 113.795 19.5847 115.133 21.2352 115.133H38.351C40.0015 115.133 41.3396 113.795 41.3396 112.144V103.877C41.3396 103.156 41.0846 102.495 40.6599 101.979H132.208C132.17 102.112 132.149 102.253 132.149 102.399V112.144C132.149 113.795 133.487 115.133 135.138 115.133H152.253C153.904 115.133 155.242 113.795 155.242 112.144V103.877C155.242 103.154 154.986 102.492 154.559 101.975C158.968 101.837 162.499 98.2198 162.499 93.7777ZM37.3389 35.8634L45.5547 16.7065C47.5705 12.0065 52.1927 8.95945 57.3067 8.95945H117.223C122.557 8.95945 127.332 12.2715 129.2 17.2685L136.201 35.9948C136.932 37.9481 135.487 40.0299 133.402 40.0299H40.0855C37.9397 40.0299 36.4931 37.8356 37.3389 35.8634ZM115.158 72.9836L112.553 66.7007C111.612 64.431 113.28 61.9336 115.737 61.9336H139.591C141.495 61.9336 143.038 63.4768 143.038 65.3805V71.6634C143.038 73.567 141.495 75.1103 139.591 75.1103H118.342C116.949 75.1103 115.692 74.271 115.158 72.9836ZM60.1622 66.7007L57.5571 72.9836C57.0232 74.271 55.7667 75.1103 54.373 75.1103H33.1246C31.221 75.1103 29.6777 73.567 29.6777 71.6634V65.3805C29.6777 63.4768 31.221 61.9336 33.1247 61.9336H56.9782C59.4353 61.9336 61.1033 64.431 60.1622 66.7007Z" fill="#1A1930"/>
</svg>
