<svg xmlns="http://www.w3.org/2000/svg" width="171" height="115" viewBox="0 0 171 115" fill="none">
    <path fill-rule="evenodd" clip-rule="evenodd" d="M159.555 93.6449V57.2636C159.555 54.0148 158.337 50.8879 156.148 48.5178L153.347 45.4846C154.161 44.9406 155.126 44.6869 156.101 44.6756C160.817 44.6205 168.132 43.2469 170.148 38.1038C170.532 37.1234 170.316 36.0122 169.632 35.2183C167.042 32.2158 160.62 28.1681 149.299 29.0729C147.895 29.2658 145.551 31.1198 146.09 36.8166L131.842 5.07577C130.966 3.12477 129.135 1.79625 127.029 1.62886C117.059 0.836366 100.416 0 84.5 0C71.5213 0 53.4547 0.832388 43.4566 1.6232C41.3515 1.78971 39.5279 3.12695 38.6619 5.08171L24.5792 36.868C25.1365 31.131 22.7833 29.2664 21.3745 29.0729C10.054 28.1681 3.63162 32.2158 1.04222 35.2183C0.357547 36.0122 0.141744 37.1234 0.526037 38.1038C2.54209 43.2469 9.85642 44.6205 14.5727 44.6756C15.4741 44.6861 16.3663 44.9035 17.1392 45.3656L13.7047 48.9055C11.3837 51.2977 10.0828 54.5205 10.0827 57.878L10.0823 93.2124C10.0823 97.6143 13.3277 101.247 17.5223 101.779C17.471 101.932 17.4431 102.096 17.4431 102.267V112.011C17.4431 113.662 18.7613 115 20.3873 115H37.2492C38.8752 115 40.1934 113.662 40.1934 112.011V103.744C40.1934 103.023 39.9422 102.362 39.5239 101.846H129.714C129.676 101.98 129.656 102.121 129.656 102.267V112.011C129.656 113.662 130.974 115 132.6 115H149.462C151.088 115 152.406 113.662 152.406 112.011V103.744C152.406 103.021 152.153 102.359 151.733 101.842C156.076 101.704 159.555 98.087 159.555 93.6449ZM36.2521 35.7306L44.3461 16.5737C46.3319 11.8737 50.8855 8.82664 55.9237 8.82664H114.951C120.206 8.82664 124.91 12.1387 126.75 17.1357L133.648 35.862C134.367 37.8153 132.944 39.8971 130.89 39.8971H38.958C36.844 39.8971 35.4189 37.7028 36.2521 35.7306ZM112.917 72.8508L110.351 66.5679C109.423 64.2982 111.067 61.8008 113.487 61.8008H136.987C138.862 61.8008 140.383 63.344 140.383 65.2477V71.5306C140.383 73.4342 138.862 74.9775 136.987 74.9775H116.054C114.681 74.9775 113.443 74.1382 112.917 72.8508ZM58.7368 66.5679L56.1703 72.8508C55.6444 74.1382 54.4065 74.9775 53.0335 74.9775H32.1004C30.2249 74.9775 28.7046 73.4342 28.7046 71.5306V65.2477C28.7046 63.344 30.2249 61.8008 32.1004 61.8008H55.6C58.0206 61.8008 59.664 64.2982 58.7368 66.5679Z" fill="#45427D"/>
</svg>
