<svg width="86" height="90" viewBox="0 0 86 90" fill="none" xmlns="http://www.w3.org/2000/svg">
<path d="M36.9551 44.5781C46.1087 44.5782 54.4787 47.85 60.8369 53.25L60.8984 53.0615L60.9912 52.8115C62.0005 50.391 65.4819 50.391 66.4912 52.8115L66.584 53.0615L69.9883 63.5381H81.0039C83.809 63.5382 85.0268 67.0154 82.9707 68.7803L82.7617 68.9463L73.8486 75.4199L77.2529 85.8975L77.3252 86.1543C77.9317 88.706 75.1144 90.7529 72.875 89.3877L72.6533 89.2402L63.7412 82.7646L54.8291 89.2402C53.1234 90.4794 50.9901 89.6014 50.3008 87.9697H7.88672C4.18373 87.9697 0.999023 85.0849 0.999023 81.3086V78.9209C0.999094 59.8564 17.1981 44.5783 36.9551 44.5781ZM61.0049 65.3818C60.6297 66.5364 59.5979 67.3413 58.4033 67.4375L58.1621 67.4473H49.3086L56.4717 72.6514C57.4538 73.3651 57.9009 74.5958 57.623 75.7617L57.5576 75.9932L54.8213 84.4121L61.9844 79.21L62.1846 79.0762C63.1395 78.4932 64.3429 78.4931 65.2979 79.0762L65.498 79.21L72.6602 84.4121L69.9248 75.9932C69.5248 74.7616 69.9632 73.4125 71.0107 72.6514L78.1738 67.4473H69.3203C68.1063 67.4473 67.0212 66.7147 66.5605 65.6084L66.4775 65.3818L63.7412 56.9619L61.0049 65.3818ZM36.9551 48.8789C19.3724 48.8791 5.30085 62.4269 5.30078 78.9209V81.3086C5.30078 82.5144 6.35809 83.6689 7.88672 83.6689H50.9531L53.6328 75.4199L44.7207 68.9463C42.3781 67.2441 43.5828 63.5381 46.4785 63.5381H57.4941L59.3828 57.7236C53.6592 52.2692 45.7346 48.879 36.9551 48.8789ZM36.377 1.57031C47.2795 1.57031 56.1181 10.409 56.1182 21.3115C56.1182 32.2141 47.2796 41.0527 36.377 41.0527C25.4745 41.0526 16.6357 32.214 16.6357 21.3115C16.6358 10.4091 25.4745 1.57049 36.377 1.57031ZM36.377 5.87109C27.8494 5.87127 20.9366 12.7839 20.9365 21.3115C20.9365 29.8392 27.8493 36.7528 36.377 36.7529C44.9047 36.7529 51.8184 29.8393 51.8184 21.3115C51.8183 12.7838 44.9047 5.87109 36.377 5.87109Z" fill="#45427D"/>
</svg>
