<svg width="86" height="90" viewBox="0 0 86 90" fill="none" xmlns="http://www.w3.org/2000/svg">
    <path d="M36.9561 44.5781C46.1096 44.5782 54.4797 47.85 60.8379 53.25L60.8994 53.0615L60.9922 52.8115C62.0015 50.391 65.4829 50.391 66.4922 52.8115L66.585 53.0615L69.9893 63.5381H81.0049C83.81 63.5382 85.0278 67.0154 82.9717 68.7803L82.7627 68.9463L73.8496 75.4199L77.2539 85.8975L77.3262 86.1543C77.9327 88.706 75.1154 90.7529 72.876 89.3877L72.6543 89.2402L63.7422 82.7646L54.8301 89.2402C53.1244 90.4794 50.9911 89.6014 50.3018 87.9697H7.8877C4.18471 87.9697 1 85.0849 1 81.3086V78.9209C1.00007 59.8564 17.1991 44.5783 36.9561 44.5781ZM61.0059 65.3818C60.6307 66.5364 59.5988 67.3413 58.4043 67.4375L58.1631 67.4473H49.3096L56.4727 72.6514C57.4548 73.3651 57.9019 74.5958 57.624 75.7617L57.5586 75.9932L54.8223 84.4121L61.9854 79.21L62.1855 79.0762C63.1405 78.4932 64.3439 78.4931 65.2988 79.0762L65.499 79.21L72.6611 84.4121L69.9258 75.9932C69.5258 74.7616 69.9642 73.4125 71.0117 72.6514L78.1748 67.4473H69.3213C68.1073 67.4473 67.0222 66.7147 66.5615 65.6084L66.4785 65.3818L63.7422 56.9619L61.0059 65.3818ZM36.9561 48.8789C19.3734 48.8791 5.30183 62.4269 5.30176 78.9209V81.3086C5.30176 82.5144 6.35907 83.6689 7.8877 83.6689H50.9541L53.6338 75.4199L44.7217 68.9463C42.379 67.2441 43.5837 63.5381 46.4795 63.5381H57.4951L59.3838 57.7236C53.6602 52.2692 45.7356 48.879 36.9561 48.8789ZM36.3779 1.57031C47.2805 1.57031 56.1191 10.409 56.1191 21.3115C56.1191 32.2141 47.2805 41.0527 36.3779 41.0527C25.4755 41.0526 16.6367 32.214 16.6367 21.3115C16.6368 10.4091 25.4755 1.57049 36.3779 1.57031ZM36.3779 5.87109C27.8503 5.87127 20.9375 12.7839 20.9375 21.3115C20.9375 29.8392 27.8503 36.7528 36.3779 36.7529C44.9057 36.7529 51.8193 29.8393 51.8193 21.3115C51.8193 12.7838 44.9057 5.87109 36.3779 5.87109Z" fill="black"/>
</svg>
