<svg width="136" height="143" viewBox="0 0 136 143" fill="none" xmlns="http://www.w3.org/2000/svg">
<path d="M58.6802 70.7812C72.6202 70.7814 85.4032 75.6164 95.2642 83.6484C96.8043 79.8949 102.003 79.9089 103.515 83.6914L103.655 84.084L108.773 100.521H125.335C129.553 100.521 131.384 105.976 128.292 108.745L127.978 109.005L114.577 119.162L119.696 135.6L119.804 136.003C120.716 140.006 116.48 143.217 113.113 141.075L112.78 140.844L99.3804 130.685L85.981 140.844C83.4187 142.786 80.2158 141.413 79.1763 138.857H13.0747C7.26546 138.857 2.27123 134.331 2.271 128.407V124.661C2.27111 94.7513 27.6839 70.7816 58.6802 70.7812ZM95.2661 103.413C94.702 105.224 93.1509 106.488 91.355 106.639L90.9917 106.653H77.6802L88.4507 114.818C89.9272 115.938 90.5989 117.869 90.1812 119.698L90.0835 120.061L85.9692 133.27L96.7388 125.107L97.0396 124.897C98.4752 123.983 100.285 123.983 101.72 124.897L102.022 125.107L112.791 133.27L108.677 120.061C108.076 118.129 108.735 116.012 110.31 114.818L121.08 106.653H107.768C105.943 106.653 104.312 105.504 103.62 103.769L103.495 103.413L99.3804 90.2031L95.2661 103.413ZM58.6802 77.5283C31.0952 77.5287 9.01818 98.7841 9.01807 124.661V128.407C9.01831 130.299 10.6768 132.11 13.0747 132.11H80.1509L84.1821 119.162L70.7827 109.005C67.2605 106.334 69.0714 100.521 73.4253 100.521H89.9878L93.061 90.6494C84.1506 82.5343 72.0457 77.5284 58.6802 77.5283ZM57.7739 3.30469C74.8787 3.30475 88.7455 17.1716 88.7456 34.2764C88.7455 51.3811 74.8786 65.248 57.7739 65.248C40.6692 65.248 26.8024 51.3811 26.8022 34.2764C26.8023 17.1716 40.6692 3.30476 57.7739 3.30469ZM57.7739 10.0518C44.395 10.0518 33.5494 20.8974 33.5493 34.2764C33.5494 47.6553 44.395 58.5019 57.7739 58.502C71.1528 58.5019 81.9994 47.6553 81.9995 34.2764C81.9994 20.8974 71.1528 10.0518 57.7739 10.0518Z" fill="white"/>
</svg>
