<svg xmlns="http://www.w3.org/2000/svg" width="21" height="16" viewBox="0 0 21 16" fill="none">
    <path d="M11.5897 9.91648C11.4301 10.0682 11.2927 10.1991 11.1711 10.2973C11.0613 10.3858 10.9439 10.4653 10.8055 10.5172L10.7448 10.5377C10.5288 10.6031 10.2997 10.608 10.0821 10.5526L9.98966 10.5253C9.82627 10.4698 9.69381 10.376 9.57186 10.2707C9.51271 10.2197 9.44978 10.16 9.38247 10.0938L9.16613 9.87586L8.19181 8.88666L2.4645 14.1765H18.835L12.6915 8.86897L11.5897 9.91648ZM13.2914 8.29877L19.5294 13.6883V2.37081L13.2914 8.29877ZM1.82353 13.6473L7.61397 8.29958L1.82353 2.41665V13.6473ZM9.75281 9.29843L9.96031 9.50712C10.0181 9.5641 10.0663 9.60984 10.1099 9.64746C10.1933 9.71951 10.2331 9.73786 10.2547 9.74517L10.3166 9.76126C10.3795 9.77217 10.4447 9.76828 10.5064 9.7496L10.5265 9.74196C10.551 9.73106 10.5896 9.70822 10.654 9.65631C10.7436 9.58398 10.8529 9.48029 11.0223 9.31934L18.9106 1.82353H2.39493L9.75281 9.29843ZM20.3529 14.5882C20.3529 14.8156 20.1686 15 19.9412 15H1.41176C1.18435 15 1 14.8156 1 14.5882V1.41176C1 1.18435 1.18435 1 1.41176 1H19.9412L19.9834 1.00201C20.191 1.02315 20.3529 1.1986 20.3529 1.41176V14.5882Z" fill="black" stroke="black" stroke-width="0.4"/>
</svg>
