<svg width="22" height="22" viewBox="0 0 22 22" fill="none" xmlns="http://www.w3.org/2000/svg">
<g id="Frame 426">
<circle id="Ellipse 9" cx="11" cy="11" r="10" stroke="#1A1930" stroke-width="1.8"/>
<path id="&#226;&#130;&#172;" d="M15 6.02338L14.2404 7.52545C13.5358 6.82118 12.7651 6.46905 11.9284 6.46905C11.1908 6.46905 10.5743 6.76066 10.0789 7.34388C9.66055 7.86107 9.37982 8.50481 9.2367 9.2751H13.5963L13.167 10.3315H9.1211C9.11009 10.3865 9.10459 10.4635 9.10459 10.5626C9.10459 10.6616 9.10459 10.7882 9.10459 10.9422C9.10459 11.2283 9.11009 11.3989 9.1211 11.4539H12.9358L12.5229 12.4938H9.20367C9.33578 13.3851 9.61651 14.0839 10.0459 14.5901C10.5413 15.2173 11.2128 15.531 12.0606 15.531C12.611 15.531 13.0679 15.4429 13.4312 15.2669C13.7615 15.1018 14.1358 14.8267 14.5541 14.4415V16.2737C13.8055 16.7579 12.9743 17 12.0606 17C10.5853 17 9.43486 16.5488 8.60917 15.6465C7.89358 14.8652 7.44771 13.8143 7.27156 12.4938H6L6.44587 11.4539H7.18899C7.17798 11.3769 7.16697 11.2944 7.15596 11.2063C7.15596 11.1183 7.15596 11.0248 7.15596 10.9257C7.15596 10.8487 7.15596 10.7607 7.15596 10.6616C7.16697 10.5626 7.17798 10.4525 7.18899 10.3315H6L6.42936 9.2751H7.30459C7.57982 8.00963 8.08073 7.00825 8.80734 6.27098C9.65505 5.42366 10.7394 5 12.0606 5C13.0183 5 13.9982 5.34113 15 6.02338Z" fill="#1A1930"/>
</g>
</svg>
