<svg width="130" height="139" viewBox="0 0 130 139" fill="none" xmlns="http://www.w3.org/2000/svg">
<path fill-rule="evenodd" clip-rule="evenodd" d="M62.2911 1.50879C64.3128 0.107308 67.0878 0.610094 68.4893 2.6318L129.066 90.0166C130.468 92.0383 129.965 94.8133 127.943 96.2148L107.075 110.681C105.188 111.989 102.615 111.648 101.134 109.894C100.317 108.926 98.7424 107.607 96.9644 106.967C95.3743 106.394 93.7786 106.381 92.0513 107.579C88.8109 109.825 87.7246 111.893 87.4358 113.355C87.1458 114.822 87.511 116.424 88.6346 118.045C90.036 120.066 89.5333 122.841 87.5116 124.243L68.3826 137.503C66.3609 138.905 63.5858 138.402 62.1844 136.38L1.60743 48.9957C0.205941 46.974 0.708727 44.1989 2.73043 42.7975L21.8594 29.5369C22.8303 28.8638 24.0287 28.6041 25.1911 28.8147C26.3535 29.0253 27.3846 29.689 28.0576 30.6599C28.8355 31.782 30.4581 33.307 32.4974 33.9854C34.2803 34.5785 36.745 34.666 39.9612 32.4364C43.1558 30.2219 43.3653 28.3567 43.2389 27.2097C43.0608 25.5936 41.9776 23.8941 40.8946 22.8664C39.9221 21.9435 39.4171 20.6317 39.5196 19.2949C39.6221 17.9582 40.3213 16.7387 41.4231 15.9749L62.2911 1.50879ZM63.7057 11.3676L50.2912 20.6668C51.174 22.2801 51.8653 24.1616 52.0936 26.234C52.6261 31.0669 50.5368 35.9447 45.0364 39.7577C39.5576 43.5557 34.177 43.9324 29.6855 42.4383C27.3429 41.659 25.3535 40.4118 23.7669 39.054L11.4663 47.5811L66.968 127.645L79.2594 119.124C78.4541 116.824 78.172 114.282 78.6964 111.628C79.5499 107.309 82.391 103.436 86.9761 100.257C91.5091 97.1149 96.2257 97.2322 99.9826 98.5851C101.872 99.2654 103.547 100.259 104.941 101.321L119.207 91.4312L63.7057 11.3676Z" fill="#1A1930"/>
<path fill-rule="evenodd" clip-rule="evenodd" d="M81.5536 31.2373L86.6289 38.5586L75.6819 46.1472L70.6067 38.826L81.5536 31.2373ZM68.4306 51.174L46.5367 66.3512L41.4615 59.03L63.3553 43.8527L68.4306 51.174ZM39.2854 71.378L28.3385 78.9667C26.3168 80.3681 23.5417 79.8654 22.1402 77.8437C20.7388 75.822 21.2415 73.0469 23.2632 71.6454L34.2102 64.0568L39.2854 71.378Z" fill="#1A1930"/>
</svg>
