<svg xmlns="http://www.w3.org/2000/svg" width="28" height="22" viewBox="0 0 28 22" fill="none">
    <path d="M1 19.6704V7.78855C1 6.81067 1.72906 6.01144 2.64672 5.96079C2.72414 5.18125 3.27561 4.51276 4.04501 4.35535L22.7352 0.534136L22.8234 0.518356C23.7345 0.381891 24.5969 1.01988 24.7746 1.98084L26.968 13.8488L26.9826 13.9416C27.1111 14.8914 26.5165 15.7901 25.6165 15.9879L23.4557 16.6465V19.6704C23.4556 20.6809 22.677 21.5 21.7163 21.5H2.73938C1.77869 21.5 1.00007 20.6809 1 19.6704ZM14.0352 18.3156L14.0745 18.3179C14.2681 18.3386 14.4191 18.5107 14.4191 18.7198C14.419 18.9289 14.2681 19.1011 14.0745 19.1218L14.0352 19.1236H3.64304C3.43098 19.1236 3.25923 18.9429 3.25916 18.7198C3.25916 18.4967 3.43093 18.3156 3.64304 18.3156H14.0352ZM7.2577 16.4145L7.29697 16.4168C7.49063 16.4375 7.64158 16.6096 7.64158 16.8187C7.64151 17.0279 7.4906 17.2 7.29697 17.2207L7.2577 17.2225H3.64304C3.43098 17.2225 3.25923 17.0418 3.25916 16.8187C3.25916 16.5956 3.43093 16.4145 3.64304 16.4145H7.2577ZM12.6797 16.4145L12.719 16.4168C12.9126 16.4375 13.0636 16.6096 13.0636 16.8187C13.0635 17.0279 12.9126 17.2 12.719 17.2207L12.6797 17.2225H9.06503C8.85296 17.2225 8.68122 17.0418 8.68115 16.8187C8.68115 16.5956 8.85292 16.4145 9.06503 16.4145H12.6797ZM20.3608 16.4145L20.4001 16.4168C20.5938 16.4375 20.7447 16.6096 20.7447 16.8187C20.7446 17.0279 20.5937 17.2 20.4001 17.2207L20.3608 17.2225H14.9388C14.7268 17.2225 14.555 17.0418 14.555 16.8187C14.555 16.5956 14.7267 16.4145 14.9388 16.4145H20.3608ZM9.58481 12.066C9.58481 11.5017 9.14971 11.044 8.6132 11.044H4.99854C4.46203 11.044 4.02692 11.5017 4.02692 12.066C4.02699 12.6303 4.46207 13.0876 4.99854 13.0876H8.6132C9.14966 13.0876 9.58474 12.6303 9.58481 12.066ZM10.3526 12.066C10.3525 13.0765 9.57388 13.8956 8.6132 13.8956H4.99854C4.03785 13.8956 3.25923 13.0765 3.25916 12.066C3.25916 11.0554 4.03781 10.2359 4.99854 10.2359H8.6132C9.57392 10.2359 10.3526 11.0554 10.3526 12.066ZM1.76776 19.6704C1.76783 20.2347 2.20291 20.6919 2.73938 20.6919H21.7163C22.2528 20.6919 22.6879 20.2347 22.6879 19.6704V7.78855C22.6879 7.22421 22.2528 6.76653 21.7163 6.76653H2.73938C2.20287 6.76653 1.76776 7.22421 1.76776 7.78855V19.6704ZM23.4557 15.8051L25.4122 15.2096L25.4285 15.2045L25.4457 15.2012C25.9395 15.1003 26.2728 14.6222 26.228 14.1063L26.2139 14.0028L24.0209 2.13493C23.9249 1.61575 23.4707 1.26565 22.9805 1.31249L22.8816 1.32688L4.19195 5.14856C3.79106 5.23053 3.49663 5.56102 3.42374 5.95847H21.7163C22.6771 5.95847 23.4557 6.77798 23.4557 7.78855V15.8051Z" fill="black" stroke="black" stroke-width="0.3"/>
</svg>
