<svg width="96" height="132" viewBox="0 0 96 132" fill="none" xmlns="http://www.w3.org/2000/svg">
<path d="M46.6015 1.08772L46.6055 1.08759C47.0482 1.07316 47.4973 1.06829 47.9491 1.06829C48.3973 1.06829 48.8465 1.07793 49.2976 1.08773C85.2844 1.99827 106.894 41.5996 88.8649 72.7867L89.3399 73.0613L88.8648 72.7867L58.9039 124.623L59.3791 124.898L58.9039 124.623C54.0319 133.053 41.8613 133.053 36.9893 124.623L36.5142 124.898L36.9893 124.623L7.02839 72.7867C-10.9964 41.5993 10.6141 1.99756 46.6015 1.08772ZM24.6823 44.7214C24.6823 57.571 35.0994 67.9881 47.9491 67.9881C60.7987 67.9881 71.2158 57.571 71.2158 44.7214C71.2158 31.8718 60.7987 21.4547 47.9491 21.4547C35.0994 21.4547 24.6823 31.8718 24.6823 44.7214Z" fill="#1A1930" stroke="black" stroke-width="1.09753"/>
</svg>
