<svg xmlns="http://www.w3.org/2000/svg" width="97" height="131" viewBox="0 0 97 131" fill="none">
    <path d="M48.1748 0.548828C48.6227 0.54883 49.0717 0.557584 49.5225 0.567383V0.568359C85.2287 1.4713 106.782 40.4638 89.5059 71.5352L89.0908 72.2676L59.1299 124.104C54.3341 132.401 42.4652 132.532 37.4482 124.493L37.2148 124.104L7.25391 72.2676C-10.6301 41.3238 10.5045 2.09638 45.9863 0.59668L46.8271 0.568359H46.8311C47.2737 0.553924 47.7231 0.548828 48.1748 0.548828ZM48.1748 20.9355C35.3252 20.9355 24.9082 31.3525 24.9082 44.2021C24.9084 57.0516 35.3253 67.4688 48.1748 67.4688C61.0243 67.4687 71.4413 57.0516 71.4414 44.2021C71.4414 31.3526 61.0244 20.9356 48.1748 20.9355Z" fill="#45427D" stroke="#45427D" stroke-width="1.09753"/>
</svg>
