<svg xmlns="http://www.w3.org/2000/svg" width="15" height="20" viewBox="0 0 15 20" fill="none">
    <path d="M0 19V1C1.9328e-07 0.447716 0.447715 0 1 0H11.3682C11.6661 0 11.9487 0.132781 12.1387 0.362305L14.7705 3.54248L14.8228 3.61182C14.9377 3.7783 15 3.97648 15 4.18018V19C15 19.5523 14.5523 20 14 20H1C0.482174 20 0.0565023 19.6064 0.00537109 19.1021L0 19ZM1 19H14V4.18018L11.3682 1H1V19Z" fill="black"/>
    <path d="M12.5 16L12.5513 16.0024C12.8033 16.0281 13 16.2412 13 16.5C13 16.7588 12.8033 16.9719 12.5513 16.9976L12.5 17H3C2.72386 17 2.5 16.7761 2.5 16.5C2.5 16.2239 2.72386 16 3 16H12.5ZM12.5 13.1577L12.5513 13.1606C12.8033 13.1863 12.9999 13.399 13 13.6577C13 13.9165 12.8033 14.1296 12.5513 14.1553L12.5 14.1577H3C2.72386 14.1577 2.5 13.9339 2.5 13.6577C2.5001 13.3817 2.72392 13.1577 3 13.1577H12.5ZM12.5 10L12.5513 10.0024C12.8033 10.0281 13 10.2412 13 10.5C13 10.7588 12.8033 10.9719 12.5513 10.9976L12.5 11H3C2.72386 11 2.5 10.7761 2.5 10.5C2.5 10.2239 2.72386 10 3 10H12.5Z" fill="black"/>
    <path d="M7 3.92641L6.66238 4.55227C6.34924 4.25883 6.00673 4.1121 5.63486 4.1121C5.30703 4.1121 5.03303 4.23361 4.81284 4.47662C4.62691 4.69211 4.50214 4.96034 4.43853 5.28129H6.37615L6.18532 5.72146H4.38716C4.38226 5.74438 4.37982 5.77648 4.37982 5.81774C4.37982 5.85901 4.37982 5.91174 4.37982 5.97593C4.37982 6.09514 4.38226 6.16621 4.38716 6.18913H6.08257L5.89908 6.62242H4.42385C4.48257 6.99381 4.60734 7.28496 4.79817 7.49587C5.01835 7.75722 5.31682 7.8879 5.69358 7.8879C5.93823 7.8879 6.14128 7.85122 6.30275 7.77785C6.44954 7.70908 6.6159 7.59445 6.80183 7.43398V8.19739C6.46911 8.39913 6.09969 8.5 5.69358 8.5C5.03792 8.5 4.52661 8.31201 4.15963 7.93604C3.84159 7.6105 3.64342 7.17263 3.56514 6.62242H3L3.19817 6.18913H3.52844C3.52355 6.15704 3.51865 6.12265 3.51376 6.08597C3.51376 6.04929 3.51376 6.01032 3.51376 5.96905C3.51376 5.93696 3.51376 5.90028 3.51376 5.85901C3.51865 5.81774 3.52355 5.77189 3.52844 5.72146H3L3.19083 5.28129H3.57982C3.70214 4.75401 3.92477 4.33677 4.24771 4.02957C4.62446 3.67652 5.10642 3.5 5.69358 3.5C6.11927 3.5 6.55474 3.64214 7 3.92641Z" fill="black"/>
    <path d="M10.75 0.5C10.75 0.223858 10.9739 0 11.25 0C11.5261 0 11.75 0.223858 11.75 0.5V4H14.5C14.7761 4 15 4.22386 15 4.5C15 4.77614 14.7761 5 14.5 5H10.75V0.5Z" fill="black"/>
</svg>
