<svg width="24" height="21" viewBox="0 0 24 21" fill="none" xmlns="http://www.w3.org/2000/svg">
<path d="M18.9775 12.584C19.4085 12.5841 19.8491 12.738 20.2998 13.0449L19.958 13.7207C19.641 13.4038 19.2944 13.2452 18.918 13.2451C18.5862 13.2451 18.3088 13.3764 18.0859 13.6387C17.8977 13.8714 17.7705 14.1612 17.7061 14.5078H19.668L19.4756 14.9834H17.6543C17.6494 15.0081 17.6475 15.0426 17.6475 15.0869V15.2578C17.6475 15.3863 17.6494 15.4634 17.6543 15.4883H19.3711L19.1855 15.9561H17.6914C17.7508 16.357 17.8772 16.6717 18.0703 16.8994C18.2932 17.1817 18.5961 17.3232 18.9775 17.3232C19.225 17.3232 19.4304 17.2832 19.5938 17.2041C19.7424 17.1298 19.9114 17.0063 20.0996 16.833V17.6572C19.7628 17.8751 19.3886 17.9843 18.9775 17.9844C18.3137 17.9844 17.7954 17.7811 17.4238 17.375C17.1019 17.0234 16.9015 16.5502 16.8223 15.9561H16.25L16.4502 15.4883H16.7852C16.7802 15.4537 16.7755 15.4165 16.7705 15.377V15.1318C16.7755 15.0873 16.7802 15.0378 16.7852 14.9834H16.25L16.4434 14.5078H16.8369C16.9608 13.9384 17.1867 13.488 17.5137 13.1562C17.8951 12.775 18.3831 12.584 18.9775 12.584Z" fill="#F2F2F2"/>
<path d="M10.833 14.7344C11.0137 14.7346 11.1599 14.8808 11.1602 15.0615C11.1602 15.2424 11.0139 15.3895 10.833 15.3896H6.94336C6.76264 15.3893 6.61621 15.2423 6.61621 15.0615C6.61645 14.8809 6.76279 14.7347 6.94336 14.7344H10.833Z" fill="#F2F2F2"/>
<path d="M12.3604 12.79C12.5412 12.79 12.6882 12.9364 12.6885 13.1172C12.6885 13.2982 12.5414 13.4453 12.3604 13.4453H6.94336C6.76264 13.4449 6.61621 13.298 6.61621 13.1172C6.61645 12.9366 6.76279 12.7904 6.94336 12.79H12.3604Z" fill="#F2F2F2"/>
<path d="M17.7773 8.90137C17.9581 8.90148 18.1043 9.04776 18.1045 9.22852C18.1042 9.40925 17.9581 9.55652 17.7773 9.55664H6.94336C6.76281 9.55628 6.61647 9.40909 6.61621 9.22852C6.61645 9.04792 6.76279 8.90173 6.94336 8.90137H17.7773Z" fill="#F2F2F2"/>
<path d="M17.7773 6.95703C17.9581 6.95715 18.1043 7.10342 18.1045 7.28418C18.1042 7.46491 17.9581 7.61219 17.7773 7.6123H6.94336C6.76281 7.61194 6.61647 7.46476 6.61621 7.28418C6.61645 7.10358 6.76279 6.9574 6.94336 6.95703H17.7773Z" fill="#F2F2F2"/>
<path d="M7.77734 2.00684C7.90087 2.00684 8.00945 2.08842 8.04395 2.20703L8.88086 5.08398H8.89062L9.74707 2.20508C9.78207 2.08736 9.88991 2.00698 10.0127 2.00684H10.0625C10.25 2.00684 10.3833 2.18826 10.3271 2.36719L9.28223 5.7002C9.24589 5.81601 9.13798 5.89551 9.0166 5.89551H8.73145C8.60934 5.89551 8.50155 5.815 8.46582 5.69824L7.44531 2.36523C7.39093 2.1869 7.52452 2.00708 7.71094 2.00684H7.77734Z" fill="#F2F2F2"/>
<path fill-rule="evenodd" clip-rule="evenodd" d="M12.2471 2.00684C12.3648 2.00684 12.4705 2.08042 12.5098 2.19141L13.6875 5.52441C13.7514 5.70517 13.6175 5.89551 13.4258 5.89551H13.3506C13.2303 5.89551 13.1232 5.81751 13.0859 5.70312L12.8135 4.86621H11.3887L11.1162 5.70312C11.079 5.81738 10.9727 5.89533 10.8525 5.89551H10.8008C10.6095 5.89523 10.4757 5.70588 10.5391 5.52539L11.7139 2.19141C11.7532 2.08054 11.8579 2.00684 11.9756 2.00684H12.2471ZM11.5586 4.34863H12.6484L12.1143 2.67676H12.0986L11.5586 4.34863Z" fill="#F2F2F2"/>
<path d="M16.2725 2.00684C16.4257 2.00701 16.5498 2.13088 16.5498 2.28418V2.31641C16.5498 2.46971 16.4257 2.59455 16.2725 2.59473H15.415V5.61719C15.415 5.7706 15.2901 5.89551 15.1367 5.89551H15.0674C14.9141 5.89534 14.79 5.7705 14.79 5.61719V2.59473H13.9375C13.7842 2.59462 13.6602 2.46976 13.6602 2.31641V2.28418C13.6602 2.13083 13.7842 2.00694 13.9375 2.00684H16.2725Z" fill="#F2F2F2"/>
<path fill-rule="evenodd" clip-rule="evenodd" d="M17.082 0C18.1777 0 18.918 0.386475 19.3887 0.930664C19.8432 1.45651 20.0039 2.08098 20.0566 2.50293L20.0586 2.51953L20.0605 2.53223V10.5586C22.0439 11.2134 23.4756 13.0815 23.4756 15.2842C23.4756 18.032 21.2478 20.2598 18.5 20.2598C17.3047 20.2598 16.2075 19.8384 15.3496 19.1357L14.7871 19.4365C14.3993 19.6452 13.9318 19.6454 13.5439 19.4365L12.5449 18.8984C12.4859 18.8667 12.4203 18.8526 12.3555 18.8564C12.3008 18.8597 12.2461 18.8759 12.1973 18.9043L11.3379 19.4062C10.9434 19.6361 10.4576 19.6441 10.0557 19.4277L9.05664 18.8906C8.95142 18.834 8.82495 18.834 8.71973 18.8906L7.7041 19.4365C7.31624 19.6453 6.84874 19.6454 6.46094 19.4365L5.48828 18.9131C5.06386 18.6844 4.79901 18.2408 4.79883 17.7588V10.2627H1.66602C0.942169 10.2626 0.354756 9.67499 0.354492 8.95117V2.37988C0.354492 2.28554 0.364617 2.17669 0.396484 2.06348C0.49704 1.70726 0.727273 1.19682 1.12988 0.772461C1.53658 0.343916 2.12219 7.02738e-05 2.91602 0H17.082ZM18.5 11.2598C16.2773 11.2598 14.4756 13.0615 14.4756 15.2842C14.4756 17.5068 16.2773 19.3086 18.5 19.3086C20.7227 19.3086 22.5244 17.5068 22.5244 15.2842C22.5244 13.0615 20.7227 11.2598 18.5 11.2598ZM5.16992 0.957031C5.54703 1.38376 5.75488 1.88872 5.75488 2.28418V17.7588C5.75497 17.8245 5.77303 17.888 5.80566 17.9424C5.83789 17.9961 5.8843 18.0415 5.94141 18.0723L6.91406 18.5957C7.01915 18.6521 7.14583 18.652 7.25098 18.5957L8.2666 18.0488C8.65454 17.84 9.12183 17.84 9.50977 18.0488L10.5088 18.5869C10.6178 18.6454 10.7496 18.6431 10.8564 18.5811L11.7158 18.0791L11.8682 18.0039C12.0654 17.921 12.2786 17.8876 12.4883 17.9053C12.6642 17.9201 12.8377 17.9712 12.998 18.0576L13.9971 18.5957C14.1022 18.6523 14.2288 18.6519 14.334 18.5957L14.5879 18.459L14.6436 18.4287L14.5156 18.2656C13.8929 17.4348 13.5244 16.4023 13.5244 15.2842C13.5244 13.7698 14.2012 12.4136 15.2686 11.501H6.94336C6.76266 11.5006 6.61623 11.3536 6.61621 11.1729C6.61645 10.9923 6.76279 10.8461 6.94336 10.8457H16.249C16.925 10.5022 17.6899 10.3086 18.5 10.3086C18.7045 10.3086 18.9063 10.3207 19.1045 10.3447V2.59766C19.0618 2.28216 18.9435 1.87778 18.665 1.55566C18.3948 1.24329 17.9307 0.957031 17.082 0.957031H5.16992ZM2.91602 0.957031C1.97501 0.957172 1.47167 1.76958 1.31543 2.32324C1.31424 2.32805 1.31344 2.336 1.3125 2.34766C1.31177 2.35619 1.31055 2.36711 1.31055 2.37988V8.95117C1.31081 9.14728 1.47 9.30651 1.66602 9.30664H4.79883V2.28418C4.79858 2.16139 4.69815 1.82516 4.38379 1.51074C4.08887 1.21594 3.6189 0.957031 2.91602 0.957031Z" fill="#F2F2F2"/>
<path d="M7 4H17" stroke="white" stroke-width="0.8" stroke-linecap="round"/>
</svg>
