<svg xmlns="http://www.w3.org/2000/svg" width="21" height="21" viewBox="0 0 21 21" fill="none">
    <path d="M3 1H4.9689C6.19561 1 7.29874 1.74685 7.75433 2.88583L8.47978 4.69946C8.7796 5.449 8.49112 6.30533 7.79889 6.72067V6.72067C7.06489 7.16107 6.78087 8.09977 7.26129 8.80822C8.04355 9.96181 9.03819 10.9564 10.1918 11.7387C10.9002 12.2191 11.8389 11.9351 12.2793 11.2011V11.2011C12.6947 10.5089 13.551 10.2204 14.3005 10.5202L16.1142 11.2457C17.2531 11.7013 18 12.8044 18 14.0311V16C18 16.5304 17.7893 17.0391 17.4142 17.4142C17.0391 17.7893 16.5304 18 16 18C12.0993 17.763 8.42015 16.1065 5.65683 13.3432C2.8935 10.5798 1.23705 6.90074 1 3C1 2.46957 1.21071 1.96086 1.58579 1.58579C1.96086 1.21071 2.46957 1 3 1Z" stroke="black" stroke-width="1.8" stroke-linecap="round" stroke-linejoin="round"/>
</svg>
