<svg width="122" height="131" viewBox="0 0 122 131" fill="none" xmlns="http://www.w3.org/2000/svg">
<path fill-rule="evenodd" clip-rule="evenodd" d="M4.64009 30.3977C3.09953 30.804 1.72563 31.8253 0.915075 33.3411C0.0372911 34.9826 0.00875847 36.8515 0.676742 38.444V94.7972C0.676742 97.0187 1.85043 99.0499 3.70851 100.044L57.0675 128.576C58.1153 129.503 59.4925 130.065 61.001 130.065C62.5012 130.065 63.8716 129.509 64.9172 128.591L118.304 100.044C120.163 99.0499 121.336 97.0187 121.336 94.7972V38.413C121.991 36.8273 121.957 34.972 121.085 33.3411C120.279 31.8337 118.916 30.8154 117.386 30.4045L63.4592 1.56846C61.9153 0.742805 60.0977 0.742805 58.5539 1.56846L4.64009 30.3977ZM88.4268 28.035L103.418 36.0512L61.0001 58.7333L46.009 50.7171L88.4268 28.035ZM76.163 21.4771L61.0065 13.3725L18.5889 36.0547L33.7451 44.1592L76.163 21.4771ZM110.367 45.8094L66.942 69.0302V114.393L110.367 91.172V45.8094ZM55.0599 69.0312L11.6458 45.8163V91.172L55.0599 114.387V69.0312Z" fill="#1A1930"/>
</svg>
