<svg xmlns="http://www.w3.org/2000/svg" width="123" height="130" viewBox="0 0 123 130" fill="none">
    <path fill-rule="evenodd" clip-rule="evenodd" d="M5.31392 29.4484C3.77336 29.8548 2.39946 30.876 1.5889 32.3919C0.711119 34.0334 0.682587 35.9023 1.35057 37.4948V93.848C1.35057 96.0695 2.52426 98.1007 4.38233 99.0943L57.7413 127.627C58.7891 128.553 60.1663 129.116 61.6748 129.116C63.1751 129.116 64.5454 128.559 65.591 127.642L118.978 99.0943C120.836 98.1007 122.01 96.0695 122.01 93.848V37.4638C122.665 35.8781 122.631 34.0228 121.759 32.3919C120.953 30.8844 119.59 29.8661 118.059 29.4552L64.133 0.619243C62.5891 -0.206414 60.7716 -0.206414 59.2277 0.619243L5.31392 29.4484ZM89.1006 27.0858L104.092 35.102L61.6739 57.7841L46.6829 49.7679L89.1006 27.0858ZM76.8368 20.5279L61.6804 12.4233L19.2627 35.1055L34.4189 43.21L76.8368 20.5279ZM111.041 44.8601L67.6159 68.081V113.444L111.041 90.2228V44.8601ZM55.7337 68.0819L12.3196 44.8671V90.2227L55.7337 113.438V68.0819Z" fill="#45427D"/>
</svg>
