<svg width="167" height="136" viewBox="0 0 167 136" fill="none" xmlns="http://www.w3.org/2000/svg">
<path d="M64.0865 22.8283C64.6104 21.8102 65.8151 21.3707 66.8588 21.7794L67.0671 21.873L102.723 40.2035L102.918 40.3162C103.859 40.9271 104.202 42.1649 103.678 43.1841C103.154 44.2022 101.95 44.6417 100.906 44.233L100.698 44.1394L65.0418 25.8089L64.8469 25.6962C63.9059 25.0853 63.5625 23.8475 64.0865 22.8283Z" fill="black"/>
<path d="M63.0315 22.2849C63.837 20.7202 65.6871 20.0465 67.2913 20.6746C67.3093 20.6816 67.3273 20.6891 67.345 20.697L67.554 20.7908L67.6096 20.8181L103.266 39.1482L103.318 39.1765L103.512 39.2888C103.53 39.299 103.547 39.31 103.564 39.321C105.011 40.2605 105.538 42.1606 104.734 43.7263V43.7273C103.928 45.2923 102.077 45.9658 100.473 45.3377C100.455 45.3306 100.437 45.3231 100.419 45.3152L100.211 45.2214C100.192 45.213 100.174 45.2045 100.156 45.1951L64.4993 26.864C64.4819 26.8551 64.4645 26.8455 64.4475 26.8357L64.2532 26.7234C64.2356 26.7132 64.2175 26.7022 64.2005 26.6912C62.7535 25.7516 62.2267 23.8515 63.0315 22.2859V22.2849ZM66.4094 22.8787C65.9303 22.7005 65.3817 22.9053 65.1419 23.3709C64.9013 23.8389 65.0556 24.4071 65.4807 24.6921L65.6096 24.7664L101.226 43.0759L101.345 43.1296C101.827 43.3148 102.382 43.1105 102.623 42.6414L102.663 42.5515C102.842 42.1031 102.683 41.5883 102.285 41.321L102.154 41.2439L66.5598 22.946L66.4094 22.8787Z" fill="black"/>
<path d="M99.4971 77.3626V42.1461C99.4971 40.924 100.487 39.9336 101.71 39.9336C102.932 39.9336 103.922 40.924 103.922 42.1461V77.3626C103.922 78.5848 102.932 79.5751 101.71 79.5751C100.487 79.5751 99.4971 78.5848 99.4971 77.3626Z" fill="black"/>
<path d="M102.735 42.1465C102.735 41.5799 102.277 41.1203 101.71 41.1201C101.143 41.1201 100.684 41.5797 100.684 42.1465V77.3623C100.684 77.9291 101.143 78.3887 101.71 78.3887C102.277 78.3885 102.735 77.9289 102.735 77.3623V42.1465ZM105.108 77.3623C105.108 79.2397 103.587 80.7615 101.71 80.7617C99.8325 80.7617 98.3106 79.2398 98.3106 77.3623V42.1465C98.3106 40.269 99.8325 38.7471 101.71 38.7471C103.587 38.7473 105.108 40.2691 105.108 42.1465V77.3623Z" fill="black"/>
<path d="M132.433 21.8229C133.455 21.3615 134.68 21.7395 135.255 22.7304C135.83 23.7221 135.549 24.9753 134.64 25.6327L134.451 25.7549L102.82 44.0854C101.763 44.6981 100.409 44.3381 99.7958 43.281C99.1831 42.2238 99.5431 40.8694 100.6 40.2565L132.23 21.9261L132.433 21.8229Z" fill="black"/>
<path d="M131.944 20.741C133.466 20.0539 135.28 20.5771 136.195 21.9949L136.281 22.1355L136.36 22.2791C137.137 23.7779 136.69 25.6149 135.335 26.5945C135.318 26.6065 135.301 26.6185 135.284 26.6297L135.095 26.7517C135.079 26.7621 135.063 26.7724 135.046 26.782L103.415 45.1121C101.791 46.0529 99.7115 45.5005 98.7696 43.8767V43.8757C97.8286 42.2519 98.3808 40.172 100.005 39.2302L131.636 20.8992L131.691 20.8689L131.895 20.7654L131.944 20.741ZM134.229 23.3259C133.966 22.8736 133.41 22.6951 132.94 22.8953L132.797 22.9685L101.195 41.283C100.705 41.567 100.538 42.1957 100.822 42.6863C101.106 43.1759 101.735 43.3426 102.226 43.0584L133.835 24.739L133.953 24.6629C134.366 24.3574 134.493 23.7815 134.229 23.325V23.3259Z" fill="black"/>
<path d="M115.545 11.7648C116.568 11.3034 117.793 11.6814 118.367 12.6723C118.942 13.664 118.662 14.9172 117.752 15.5745L117.563 15.6968L85.9328 34.0273C84.8755 34.64 83.5212 34.28 82.9082 33.2229C82.2956 32.1657 82.6556 30.8113 83.7126 30.1984L115.343 11.8679L115.545 11.7648Z" fill="black"/>
<path d="M115.057 10.6829C116.579 9.99584 118.393 10.519 119.308 11.9368L119.394 12.0774L119.473 12.221C120.249 13.7198 119.803 15.5568 118.447 16.5364C118.431 16.5484 118.414 16.5604 118.397 16.5715L118.207 16.6936C118.191 16.704 118.175 16.7143 118.158 16.7239L86.5275 35.054C84.9038 35.9948 82.8239 35.4424 81.882 33.8186V33.8176C80.941 32.1938 81.4932 30.1139 83.1174 29.1721L114.748 10.8411L114.804 10.8108L115.007 10.7073L115.057 10.6829ZM117.341 13.2678C117.079 12.8155 116.522 12.637 116.053 12.8372L115.909 12.9104L84.3078 31.2249C83.8179 31.5089 83.6504 32.1376 83.9347 32.6282C84.2189 33.1178 84.8475 33.2845 85.3381 33.0003L116.947 14.6809L117.066 14.6047C117.478 14.2993 117.606 13.7234 117.341 13.2669V13.2678Z" fill="black"/>
<path d="M100.475 5.91314L66.2369 25.6785V60.5893L100.475 80.3585L134.71 60.5932V25.6785L100.475 5.91314ZM138.623 60.5932C138.623 61.9907 137.876 63.2817 136.666 63.9807L102.432 83.746C101.221 84.445 99.7294 84.445 98.5187 83.746L64.2804 63.9788C63.0698 63.2798 62.324 61.9873 62.324 60.5893V25.6785C62.3241 24.2808 63.0701 22.9899 64.2804 22.291L98.5187 2.52561L98.7499 2.40142C99.9155 1.82866 101.297 1.87055 102.432 2.52561L136.666 22.291L136.888 22.4285C137.967 23.1515 138.623 24.3683 138.623 25.6785V60.5932Z" fill="black"/>
<path d="M137.436 25.6787C137.436 24.7667 136.98 23.9189 136.228 23.415L136.061 23.3115L101.839 3.55368C101.051 3.09908 100.093 3.06769 99.2839 3.4609L99.1042 3.55758L64.8738 23.3183C64.0302 23.8055 63.5106 24.7052 63.5105 25.6787V60.5888C63.5105 61.563 64.0305 62.4642 64.8738 62.9511L99.1121 82.7187C99.9555 83.2056 100.995 83.2057 101.839 82.7187L136.073 62.9531L136.227 62.8574C136.979 62.3534 137.436 61.505 137.436 60.5927V25.6787ZM135.896 24.9931V61.2783L100.475 81.7285L65.0505 61.2744V24.9931L100.475 4.54293L135.896 24.9931ZM67.4236 26.3632V59.9043L100.474 78.9882L133.523 59.9072V26.3632L100.474 7.28219L67.4236 26.3632ZM139.809 60.5937C139.809 62.4154 138.836 64.0971 137.26 65.0078L103.025 84.7734C101.447 85.6844 99.5034 85.6844 97.9255 84.7734L63.6873 65.0068C62.1093 64.0957 61.1375 62.4105 61.1375 60.5888V25.6787C61.1377 23.8568 62.1102 22.1744 63.6873 21.2636L97.9255 1.49801L97.9568 1.48043L98.1882 1.35641L98.2078 1.34567L98.2263 1.3359C99.7461 0.589144 101.547 0.644505 103.025 1.49801L137.26 21.2636L137.276 21.2724L137.292 21.2832L137.513 21.4199L137.531 21.4316L137.549 21.4423C138.955 22.3845 139.809 23.9708 139.809 25.6787V60.5937Z" fill="black"/>
<path d="M4.60544 109.957V87.0072C4.60544 84.3058 6.7953 82.116 9.49663 82.116H32.2289C32.9048 82.116 33.5734 81.9759 34.1925 81.7046L53.9436 73.0473C54.7764 72.6823 55.6945 72.5566 56.5947 72.6844L118.815 81.5191C121.227 81.8615 123.019 83.9261 123.019 86.3617V88.7773C123.019 91.4786 120.829 93.6685 118.128 93.6685H83.8659L99.6983 110.009C101.336 111.699 103.944 111.983 105.907 110.686L152.913 79.6334C154.94 78.2949 157.641 78.6456 159.258 80.4571L161.45 82.912C163.372 85.0655 163.021 88.407 160.693 90.1139L103.924 131.736C102.715 132.622 101.167 132.906 99.7233 132.505L36.7607 115.026C36.3346 114.908 35.8945 114.848 35.4523 114.848H9.49662C6.7953 114.848 4.60544 112.658 4.60544 109.957Z" fill="white"/>
<path d="M121.832 86.3615C121.832 84.5169 120.475 82.9539 118.648 82.6945L56.4277 73.8595C55.7459 73.7628 55.0506 73.8575 54.4199 74.134L34.6689 82.7912C33.8997 83.1284 33.0684 83.3029 32.2285 83.3029H9.49704C7.45116 83.3029 5.79208 84.9612 5.79196 87.007V109.957C5.79208 112.003 7.45116 113.661 9.49704 113.661H35.4521C36.0016 113.661 36.5487 113.736 37.0781 113.883L100.041 131.361C101.134 131.665 102.306 131.45 103.222 130.779L159.991 89.1574C161.754 87.8646 162.021 85.3334 160.564 83.7023L158.373 81.2472C157.148 79.8753 155.102 79.6095 153.567 80.6232L106.561 111.676C104.122 113.287 100.88 112.934 98.8457 110.834L83.3642 94.8556H65.7216C65.0664 94.8555 64.5351 94.3234 64.5351 93.6681C64.5353 93.0131 65.0666 92.4818 65.7216 92.4816H118.128C120.174 92.4814 121.832 90.8233 121.832 88.7775V86.3615ZM124.205 88.7775C124.205 92.134 121.484 94.8554 118.128 94.8556H86.6679L100.551 109.183C101.791 110.463 103.766 110.679 105.253 109.696L152.26 78.6437C154.777 76.9806 158.134 77.4162 160.144 79.6672L162.335 82.1222C164.724 84.7983 164.287 88.9504 161.395 91.0715L104.625 132.694C103.123 133.794 101.2 134.146 99.4062 133.649L36.4433 116.17C36.1206 116.081 35.787 116.034 35.4521 116.034H9.49704C6.14041 116.034 3.41903 113.314 3.41891 109.957V87.007C3.41903 83.6504 6.14041 80.9299 9.49704 80.9299H32.2285C32.7404 80.9299 33.247 80.8228 33.7158 80.6174L53.4668 71.9601C54.5016 71.5065 55.643 71.3511 56.7617 71.5099L118.982 80.3439C121.979 80.7695 124.205 83.3351 124.205 86.3615V88.7775Z" fill="black"/>
<path d="M121.066 86.3597C121.066 84.9897 120.121 83.8161 118.811 83.5052L118.544 83.4537L56.3245 74.619C55.9195 74.5614 55.5079 74.5893 55.117 74.6992L54.733 74.8368L34.9829 83.4938C34.1163 83.8736 33.1797 84.0708 32.2335 84.0708H9.50098C7.88018 84.0708 6.56627 85.3847 6.56627 87.0055V109.954C6.56627 111.575 7.88018 112.889 9.50098 112.889H35.4567C36.0758 112.889 36.6926 112.973 37.289 113.139L100.252 130.617L100.578 130.688C101.346 130.809 102.137 130.622 102.772 130.157L159.54 88.534L159.788 88.3315C160.881 87.3338 161.056 85.6654 160.195 84.4625L159.995 84.2122L157.803 81.757C156.894 80.7383 155.412 80.4901 154.228 81.1246L153.995 81.2641L106.99 112.317C104.414 114.02 101.042 113.775 98.7422 111.788L98.297 111.368L83.0407 95.6224H65.7267C64.6461 95.6224 63.7702 94.7464 63.7702 93.6659C63.7704 92.5856 64.6463 91.7094 65.7267 91.7094H118.131C119.752 91.7094 121.066 90.3955 121.066 88.7747V86.3597ZM124.979 88.7747C124.979 92.5566 121.913 95.6224 118.131 95.6224H88.4898L101.108 108.645L101.299 108.825C102.284 109.676 103.729 109.782 104.833 109.052L151.84 77.9988L152.381 77.6759C155.142 76.1945 158.6 76.775 160.723 79.1529L162.914 81.6061L163.157 81.8946C165.494 84.8149 165.045 89.0884 162.152 91.4591L161.854 91.6903L105.085 133.311C103.499 134.474 101.495 134.897 99.5848 134.482L99.2045 134.387L36.242 116.909C35.9864 116.838 35.722 116.802 35.4567 116.802H9.50098C5.71912 116.802 2.65332 113.736 2.65332 109.954V87.0055C2.65332 83.2236 5.71912 80.1578 9.50098 80.1578H32.2335C32.6386 80.1578 33.0394 80.0738 33.4105 79.9114L53.1624 71.2524L53.6057 71.0767C54.6498 70.7033 55.7722 70.5896 56.8748 70.7461L119.094 79.5808L119.717 79.6974C122.774 80.4224 124.979 83.1629 124.979 86.3597V88.7747Z" fill="black"/>
<path d="M123.792 86.3595C123.792 83.7231 121.978 81.4611 119.461 80.8556L118.908 80.7531L56.708 71.9211C55.7975 71.7918 54.8714 71.8849 54.0107 72.1916L53.6113 72.3498L33.8867 80.9982C33.3658 81.2263 32.8024 81.3448 32.2334 81.3449H9.50098C6.3745 81.3449 3.83984 83.8795 3.83984 87.006V109.954C3.83999 113.081 6.37459 115.615 9.50098 115.615H35.457C35.8295 115.615 36.2007 115.665 36.5596 115.765L99.5205 133.242L99.8477 133.324C101.423 133.663 103.075 133.314 104.384 132.355L161.152 90.7336L161.399 90.5412C163.788 88.5835 164.161 85.0526 162.233 82.6398L162.006 82.3703L159.838 79.9435C158.085 77.9804 155.231 77.4984 152.95 78.717L152.485 78.9953L105.487 110.042C103.936 111.067 101.907 110.919 100.522 109.723L100.485 109.69L100.295 109.51L100.274 109.49L100.255 109.471L85.6875 94.4357H118.131C121.257 94.4357 123.792 91.9011 123.792 88.7746V86.3595ZM119.879 86.3595C119.879 85.545 119.318 84.8472 118.54 84.6613L118.332 84.6213L56.1572 75.7941C55.9233 75.761 55.6859 75.7757 55.46 75.8361L55.1709 75.9396L35.459 84.5802C34.4429 85.0256 33.3443 85.2579 32.2334 85.258H9.50098C8.53556 85.258 7.75293 86.0406 7.75293 87.006V109.954C7.75308 110.92 8.53565 111.702 9.50098 111.702H35.457C36.1841 111.702 36.9076 111.801 37.6064 111.995L100.533 129.463L100.777 129.517C101.232 129.585 101.697 129.474 102.07 129.2L158.814 87.5939L159.001 87.4416C159.634 86.8506 159.736 85.8725 159.237 85.1642L159.082 84.9718L156.918 82.547C156.381 81.9455 155.506 81.795 154.805 82.1623L154.626 82.2687L107.645 113.308C104.621 115.305 100.666 115.017 97.9668 112.686L97.9463 112.669L97.9277 112.651L97.4824 112.231L97.4629 112.212L97.4443 112.194L82.5381 96.8088H65.7266C63.9908 96.8087 62.5841 95.4019 62.584 93.6662C62.5843 91.9309 63.9906 90.5227 65.7266 90.5226H118.131C119.096 90.5226 119.879 89.74 119.879 88.7746V86.3595ZM122.253 88.7746C122.253 91.0508 120.407 92.8957 118.131 92.8957H65.7266C65.3018 92.8957 64.9571 93.2408 64.957 93.6662L64.9609 93.7443C65.0002 94.1326 65.3279 94.4357 65.7266 94.4357H83.543L99.1357 110.528L99.5322 110.902C101.433 112.533 104.211 112.731 106.336 111.327L153.341 80.2736L153.363 80.259L153.386 80.2463L153.619 80.1066L153.644 80.092L153.668 80.0793C155.33 79.188 157.41 79.5358 158.688 80.967L160.88 83.422L160.901 83.4455L161.121 83.7199L161.142 83.7453L161.16 83.7717C162.371 85.4634 162.125 87.8054 160.589 89.2082L160.564 89.2306L160.538 89.2511L160.29 89.4533L160.267 89.4728L160.241 89.4914L103.474 131.113C102.582 131.767 101.471 132.031 100.394 131.861L100.36 131.855L100.327 131.848L100.001 131.778L99.9668 131.77L99.9346 131.761L36.9717 114.282C36.4778 114.145 35.9678 114.075 35.457 114.075H9.50098C7.2249 114.075 5.38003 112.23 5.37988 109.954V87.006C5.37988 84.7299 7.22481 82.884 9.50098 82.884H32.2334C33.0149 82.8839 33.7897 82.7217 34.5068 82.4074L54.2568 73.7502L54.2939 73.7336L54.333 73.7199L54.7168 73.5822L54.7559 73.5685L54.7959 73.5568C55.3452 73.4024 55.9229 73.3638 56.4912 73.4445L118.711 82.2785L118.739 82.2834L118.769 82.2883L119.036 82.34L119.061 82.3449L119.085 82.3508C120.926 82.7875 122.253 84.4353 122.253 86.3595V88.7746ZM126.165 88.7746C126.165 93.2118 122.568 96.8088 118.131 96.8088H91.291L101.943 107.803L102.085 107.936C102.672 108.435 103.526 108.493 104.179 108.062L151.187 77.009L151.231 76.9797L151.772 76.6574L151.796 76.6427L151.82 76.6301C155.061 74.8918 159.117 75.5727 161.607 78.3625L163.799 80.8156L163.811 80.8283L163.822 80.842L164.065 81.131L164.074 81.1418L164.083 81.1535C166.826 84.5812 166.3 89.5943 162.904 92.3771L162.879 92.3967L162.581 92.6281L162.556 92.6476L105.787 134.269C103.927 135.633 101.575 136.128 99.333 135.642L99.3145 135.638L99.2959 135.633L98.915 135.538L98.9014 135.534L98.8867 135.53L35.9248 118.052C35.7726 118.01 35.6149 117.988 35.457 117.988H9.50098C5.06384 117.988 1.46695 114.391 1.4668 109.954V87.006C1.4668 82.5688 5.06375 78.9709 9.50098 78.9709H32.2334C32.4743 78.9709 32.7127 78.921 32.9336 78.8244L52.6855 70.1652L52.7246 70.1496L53.168 69.9738L53.1875 69.966L53.2061 69.9592C54.4321 69.5207 55.7494 69.3879 57.042 69.5715L119.261 78.4064L119.287 78.4093L119.312 78.4142L119.936 78.5314L119.963 78.5363L119.991 78.5431C123.579 79.3942 126.165 82.6088 126.165 86.3595V88.7746Z" fill="black"/>
</svg>
