<svg width="96" height="79" viewBox="0 0 96 79" fill="none" xmlns="http://www.w3.org/2000/svg">
<path d="M56.4648 0.31282C57.3675 -0.133778 58.4113 -0.0984508 59.2676 0.394851L79.0996 11.847L79.2471 11.9359C80.0817 12.4953 80.5769 13.4122 80.5771 14.4027V34.6302L80.5703 34.8284C80.546 35.1933 80.4549 35.5434 80.3057 35.8656C80.0539 36.4091 79.6374 36.8752 79.1006 37.1859L61.1387 47.5579L60.0361 47.4027L58.9316 47.2474L58.9355 47.2445L58.7539 47.2191C58.2695 47.1504 57.8314 47.0902 57.3652 47.0257C57.6434 47.0651 57.8767 47.0978 58.1387 47.1351L57.9111 47.1048L57.3809 47.0296C57.3502 47.0258 57.2858 47.0158 57.2305 47.0072C57.0457 46.9817 56.8556 46.954 56.6553 46.9271L54.0781 46.556L52.2568 46.2952L36.4775 37.1859C35.621 36.6926 35.0724 35.8032 35.0068 34.8245L35 34.6263V14.4027C35.0002 13.3461 35.5643 12.3715 36.4775 11.847L56.3125 0.394851L56.4648 0.31282ZM58.6621 47.2093L58.5801 47.1986C58.4931 47.1862 58.4112 47.1735 58.333 47.1624L58.6621 47.2093ZM58.333 47.1624L58.1689 47.14L58.1387 47.1351C58.2014 47.144 58.2659 47.1529 58.333 47.1624ZM38.6416 34.2298L56.5488 44.5697C56.5405 44.4962 56.5362 44.4217 56.5361 44.346V25.1546L38.6416 15.9554V34.2298ZM60.4746 25.0882V43.7347L76.9355 34.2337V15.5482L60.4746 25.0882ZM52.1025 18.4466L58.4492 21.7093L73.6465 12.9007L67.6494 9.4388L52.1025 18.4466ZM41.6396 13.0677L47.9395 16.306L63.7129 7.16634L57.7891 3.74739L41.6396 13.0677Z" fill="#45427D"/>
<path d="M30.2432 40.7583C30.8752 40.5749 31.5411 40.5276 32.1963 40.6206L68.2422 45.7388L68.2578 45.7407L68.2715 45.7437L68.6318 45.811L68.6484 45.814L68.665 45.8179C70.7437 46.311 72.2422 48.1743 72.2422 50.3472V51.7456C72.242 54.3161 70.1574 56.3999 67.5869 56.3999H52.0391L58.2139 62.773L58.2881 62.8423C58.6279 63.1339 59.1244 63.1697 59.5039 62.9194L86.7373 44.9292L86.75 44.9214L86.7637 44.9126L87.0762 44.7261L87.0898 44.7173L87.1045 44.7105C88.9818 43.7033 91.3324 44.097 92.7754 45.7134L94.0449 47.1343L94.0586 47.1499L94.1982 47.3179L94.209 47.3306L94.3525 47.519C95.7774 49.4962 95.4318 52.2707 93.5264 53.8325L93.5117 53.8442L93.3389 53.978L93.3242 53.9897L60.4365 78.1021C59.3587 78.8922 57.9957 79.1786 56.6973 78.897L56.6855 78.895L56.6748 78.8921L56.4551 78.8364L56.4395 78.8325L19.9629 68.7065C19.9189 68.6943 19.8733 68.6854 19.8281 68.6792L19.6914 68.6694H4.65527C2.08473 68.6694 0.000126077 66.5857 0 64.0151V50.7202C0.000253277 48.1498 2.08481 46.0659 4.65527 46.0659H17.8252L17.9287 46.061C18.0322 46.0503 18.1337 46.0228 18.2295 45.981L29.6729 40.9644L29.6846 40.9595L29.6953 40.9556L29.9531 40.854L29.9639 40.8491L29.9746 40.8452L30.2432 40.7583ZM31.6846 44.2251C31.549 44.2059 31.4112 44.2145 31.2803 44.2495L31.1113 44.3101L19.6934 49.3149C19.1784 49.5407 18.6263 49.6724 18.0654 49.7017L17.8252 49.7075H4.65527C4.09613 49.7075 3.64283 50.1611 3.64258 50.7202V64.0151C3.6427 64.5743 4.09605 65.0278 4.65527 65.0278H19.6914L20.0068 65.0386C20.1751 65.0501 20.3371 65.0715 20.5029 65.1011C20.5391 65.1075 20.5812 65.1143 20.6172 65.1216C20.7247 65.1434 20.8317 65.1684 20.9375 65.1978L57.3906 75.3169L57.5381 75.3491C57.7999 75.3873 58.0672 75.3222 58.2822 75.1646L91.1592 51.0591L91.2646 50.9722C91.4075 50.8386 91.5039 50.6707 91.5508 50.4917C91.6241 50.2115 91.5771 49.903 91.4004 49.6528L91.3193 49.5513L90.0576 48.1372C89.7442 47.7865 89.233 47.7003 88.8252 47.9185L88.7432 47.9673L61.5127 65.9585C59.761 67.1156 57.4688 66.9486 55.9053 65.5981L55.8945 65.5884L55.8828 65.5776L55.625 65.3345L55.6143 65.3237L55.6035 65.312L46.9668 56.3999H37.1934C36.9163 56.3947 36.6554 56.3252 36.4219 56.2095C36.3954 56.1963 36.3676 56.1858 36.3418 56.1714C36.3046 56.1506 36.268 56.1282 36.2324 56.105C36.2043 56.0866 36.1765 56.0663 36.1494 56.0464C35.7463 55.7496 35.4704 55.2901 35.417 54.7651L35.4072 54.5796C35.4074 54.3685 35.4436 54.1646 35.5098 53.9761C35.5464 53.8717 35.5933 53.772 35.6475 53.6772C35.9612 53.1289 36.5506 52.7585 37.2275 52.7583H67.5869C68.1461 52.7583 68.6004 52.3047 68.6006 51.7456V50.3472C68.6006 50.3188 68.599 50.29 68.5967 50.2622C68.5942 50.2322 68.59 50.2026 68.585 50.1733C68.5802 50.1458 68.5744 50.1181 68.5674 50.0913C68.5574 50.053 68.5454 50.0155 68.5312 49.979C68.413 49.6755 68.1523 49.4402 67.8252 49.3618L67.7148 49.3403L60.708 48.3472L59.6055 48.1919L58.502 48.0366L55.4707 47.605L53.6475 47.3452L51.8262 47.0845L31.6846 44.2251Z" fill="#45427D"/>
</svg>
