<svg width="129" height="86" viewBox="0 0 129 86" fill="none" xmlns="http://www.w3.org/2000/svg">
<path d="M63.6311 44.4062C65.5544 44.4063 67.3778 44.5294 69.1047 44.7646L70.0295 44.9033C78.3738 46.2614 84.2361 50.2784 88.2122 55.3545C90.3229 54.3283 92.6284 53.6044 95.5413 53.2256L96.0608 53.1621C97.2795 53.0246 98.5561 52.9531 99.8918 52.9531C101.418 52.9531 102.867 53.0469 104.241 53.2256L104.949 53.3262C112.189 54.4438 117.134 57.9674 120.343 62.3721C123.61 66.8568 125.005 72.1464 125.388 76.5215L125.408 76.8652C125.518 80.3885 122.494 82.8485 119.308 82.8486H89.2268V82.834H38.0364V82.8486H7.95532C4.66691 82.8486 1.55101 80.2275 1.87524 76.5215C2.25807 72.1464 3.65323 66.8568 6.92017 62.3721C10.2324 57.8253 15.395 54.2174 23.0217 53.2256L23.5403 53.1621C24.7591 53.0246 26.0355 52.9531 27.3713 52.9531C28.8981 52.9531 30.3476 53.0469 31.7219 53.2256L32.3792 53.3184C34.8785 53.6998 37.1157 54.3703 39.1106 55.2734C43.2318 50.05 49.3642 45.9626 58.1575 44.7646L58.8088 44.6816C60.3412 44.5005 61.948 44.4062 63.6311 44.4062ZM99.8918 57.2539C98.7089 57.2539 97.5933 57.3169 96.5422 57.4355L96.0959 57.4893C93.9227 57.7719 92.2031 58.2677 90.6399 58.9648C93.9754 64.7638 95.3232 71.2782 95.5901 76.5732C95.6253 77.2731 95.54 77.9353 95.3577 78.5488H119.308C120.44 78.5488 121.088 77.7754 121.109 77.042L121.105 76.8965C120.769 73.0566 119.548 68.5836 116.867 64.9033C114.314 61.3983 110.369 58.511 104.282 57.5742L103.687 57.4893C102.507 57.3358 101.243 57.2539 99.8918 57.2539ZM27.3713 57.2539C26.1886 57.2539 25.0736 57.317 24.0227 57.4355L23.5764 57.4893C17.1506 58.3249 13.0316 61.2852 10.3958 64.9033C7.71476 68.5836 6.49542 73.0565 6.15942 76.8965C6.09193 77.6692 6.74791 78.5488 7.95532 78.5488H31.9036C31.7212 77.9352 31.6359 77.2732 31.6711 76.5732C31.939 71.258 33.295 64.714 36.6584 58.8984C35.2028 58.3066 33.5673 57.8488 31.7288 57.5684L31.1672 57.4893C29.987 57.3358 28.7232 57.2539 27.3713 57.2539ZM63.6311 48.707C62.1084 48.707 60.6704 48.7918 59.3137 48.9521L58.7375 49.0254C50.0945 50.2029 44.6069 54.5122 41.1604 59.7832C37.6666 65.1267 36.2308 71.5368 35.9661 76.79C35.9224 77.6558 36.6563 78.5332 37.8411 78.5332H89.4202C90.6048 78.533 91.3398 77.6557 91.2961 76.79C91.0315 71.5369 89.5955 65.1266 86.1018 59.7832C82.7631 54.6769 77.5083 50.4729 69.3254 49.1445L68.5247 49.0254C67.0006 48.8178 65.3711 48.7071 63.6311 48.707ZM28.0813 18.8438C36.3365 18.844 43.0286 25.5368 43.0286 33.792C43.0284 42.0471 36.3364 48.739 28.0813 48.7393C19.826 48.7393 13.1332 42.0472 13.1331 33.792C13.1331 25.5367 19.826 18.8438 28.0813 18.8438ZM99.1819 18.8438C107.437 18.8439 114.129 25.5367 114.129 33.792C114.129 42.0471 107.437 48.7391 99.1819 48.7393C90.9267 48.7392 84.2338 42.0472 84.2336 33.792C84.2336 25.5367 90.9266 18.8438 99.1819 18.8438ZM28.0813 23.1445C22.2008 23.1445 17.4338 27.9115 17.4338 33.792C17.434 39.6724 22.2009 44.4395 28.0813 44.4395C33.9616 44.4392 38.7286 39.6723 38.7288 33.792C38.7288 27.9116 33.9616 23.1447 28.0813 23.1445ZM99.1819 23.1445C93.3014 23.1446 88.5344 27.9115 88.5344 33.792C88.5345 39.6724 93.3015 44.4394 99.1819 44.4395C105.062 44.4393 109.829 39.6723 109.829 33.792C109.829 27.9116 105.062 23.1447 99.1819 23.1445ZM63.6311 1.75781C74.2423 1.7579 82.845 10.3604 82.845 20.9717C82.845 31.5829 74.2423 40.1855 63.6311 40.1855C53.0198 40.1855 44.4172 31.583 44.4172 20.9717C44.4172 10.3604 53.0198 1.75782 63.6311 1.75781ZM63.6311 6.05859C55.3946 6.0586 48.718 12.7352 48.718 20.9717C48.718 29.2082 55.3946 35.8848 63.6311 35.8848C71.8675 35.8847 78.5442 29.2081 78.5442 20.9717C78.5442 12.7352 71.8675 6.05868 63.6311 6.05859Z" fill="#45427D"/>
</svg>
