<svg width="73" height="85" viewBox="0 0 73 85" fill="none" xmlns="http://www.w3.org/2000/svg">
<path d="M36.0003 43C38.1665 43 40.2194 43.1351 42.1637 43.3927L43.2193 43.5464C54.0025 45.2568 61.0974 50.8007 65.5246 57.526C70.0423 64.3887 71.7423 72.4027 71.9957 78.7234L72 79.061C71.9468 82.5261 68.9158 85 65.5887 85H6.41191C2.9777 85 -0.140868 82.3643 0.0049163 78.7234C0.258308 72.4027 1.95831 64.3887 6.47601 57.526C11.0461 50.5837 18.459 44.8999 29.8369 43.3927L30.5709 43.3013C32.296 43.1029 34.1049 43 36.0003 43ZM36.0003 47.575C34.2803 47.575 32.6563 47.6679 31.1232 47.8441L30.4715 47.9251C20.5712 49.2366 14.3263 54.0848 10.4375 59.9922C6.49648 65.9791 4.93594 73.1327 4.70466 78.901C4.67468 79.6487 5.32918 80.426 6.41191 80.426H65.5887C66.6039 80.426 67.2418 79.7428 67.2928 79.0413L67.2949 78.901C67.0636 73.1327 65.5041 65.979 61.5631 59.9922C57.7959 54.2695 51.8174 49.5405 42.4468 48.0581L41.5291 47.9251C39.8066 47.6969 37.966 47.575 36.0003 47.575Z" fill="#45427D"/>
<path d="M51.1826 19.7412C51.1826 11.2135 44.269 4.30078 35.7412 4.30078C27.2135 4.30083 20.3008 11.2135 20.3008 19.7412C20.3008 28.269 27.2135 35.1826 35.7412 35.1826C44.269 35.1826 51.1826 28.269 51.1826 19.7412ZM55.4824 19.7412C55.4824 30.6438 46.6438 39.4824 35.7412 39.4824C24.8386 39.4824 16 30.6438 16 19.7412C16 8.83868 24.8387 4.74161e-05 35.7412 0C46.6438 0 55.4824 8.83865 55.4824 19.7412Z" fill="#45427D"/>
</svg>
