<svg width="138" height="138" viewBox="0 0 138 138" fill="none" xmlns="http://www.w3.org/2000/svg">
<path d="M69.0002 0.949219C31.4043 0.949219 0.943359 31.4102 0.943359 69.0061C0.943359 106.602 31.4043 137.063 69.0002 137.063C106.596 137.063 137.057 106.602 137.057 69.0061C137.057 31.4102 106.596 0.949219 69.0002 0.949219ZM69.0002 27.2938C82.3372 27.2938 93.1494 38.1061 93.1494 51.443C93.1494 64.78 82.3372 75.5922 69.0002 75.5922C55.6633 75.5922 44.851 64.78 44.851 51.443C44.851 38.1061 55.6633 27.2938 69.0002 27.2938ZM69.0002 121.695C52.8916 121.695 38.457 114.396 28.7973 102.98C33.9564 93.2651 44.0552 86.5691 55.8279 86.5691C56.4865 86.5691 57.1452 86.6789 57.7763 86.871C61.3438 88.0236 65.076 88.7645 69.0002 88.7645C72.9245 88.7645 76.6841 88.0236 80.2241 86.871C80.8553 86.6789 81.5139 86.5691 82.1725 86.5691C93.9453 86.5691 104.044 93.2651 109.203 102.98C99.5435 114.396 85.1088 121.695 69.0002 121.695Z" fill="#1A1930"/>
</svg>
