<svg width="24" height="21" viewBox="0 0 24 21" fill="none" xmlns="http://www.w3.org/2000/svg">
    <path d="M18.623 12.584C19.054 12.5841 19.4946 12.738 19.9453 13.0449L19.6035 13.7207C19.2865 13.4038 18.9399 13.2452 18.5635 13.2451C18.2317 13.2451 17.9543 13.3764 17.7314 13.6387C17.5432 13.8714 17.416 14.1612 17.3516 14.5078H19.3135L19.1211 14.9834H17.2998C17.2949 15.0081 17.293 15.0426 17.293 15.0869V15.2578C17.293 15.3863 17.2949 15.4634 17.2998 15.4883H19.0166L18.8311 15.9561H17.3369C17.3963 16.357 17.5228 16.6717 17.7158 16.8994C17.9388 17.1817 18.2416 17.3232 18.623 17.3232C18.8705 17.3232 19.0759 17.2832 19.2393 17.2041C19.3879 17.1298 19.5569 17.0063 19.7451 16.833V17.6572C19.4083 17.8751 19.0341 17.9843 18.623 17.9844C17.9592 17.9844 17.4409 17.7811 17.0693 17.375C16.7474 17.0234 16.547 16.5502 16.4678 15.9561H15.8955L16.0957 15.4883H16.4307C16.4257 15.4537 16.421 15.4165 16.416 15.377V15.1318C16.421 15.0873 16.4257 15.0378 16.4307 14.9834H15.8955L16.0889 14.5078H16.4824C16.6063 13.9384 16.8322 13.488 17.1592 13.1562C17.5406 12.775 18.0286 12.584 18.623 12.584Z" fill="#F2F2F2"/>
    <path d="M10.4785 14.7344C10.6592 14.7346 10.8054 14.8808 10.8057 15.0615C10.8057 15.2424 10.6594 15.3895 10.4785 15.3896H6.58887C6.40815 15.3893 6.26172 15.2423 6.26172 15.0615C6.26195 14.8809 6.4083 14.7347 6.58887 14.7344H10.4785Z" fill="#F2F2F2"/>
    <path d="M12.0059 12.79C12.1867 12.79 12.3338 12.9364 12.334 13.1172C12.334 13.2982 12.1869 13.4453 12.0059 13.4453H6.58887C6.40815 13.4449 6.26172 13.298 6.26172 13.1172C6.26195 12.9366 6.4083 12.7904 6.58887 12.79H12.0059Z" fill="#F2F2F2"/>
    <path d="M17.4229 8.90137C17.6036 8.90148 17.7498 9.04776 17.75 9.22852C17.7497 9.40925 17.6036 9.55652 17.4229 9.55664H6.58887C6.40831 9.55628 6.26198 9.40909 6.26172 9.22852C6.26195 9.04792 6.4083 8.90173 6.58887 8.90137H17.4229Z" fill="#F2F2F2"/>
    <path d="M17.4229 6.95703C17.6036 6.95715 17.7498 7.10342 17.75 7.28418C17.7497 7.46491 17.6036 7.61219 17.4229 7.6123H6.58887C6.40831 7.61194 6.26198 7.46476 6.26172 7.28418C6.26195 7.10358 6.4083 6.9574 6.58887 6.95703H17.4229Z" fill="#F2F2F2"/>
    <path d="M7.42285 2.00684C7.54638 2.00684 7.65496 2.08842 7.68945 2.20703L8.52637 5.08398H8.53613L9.39258 2.20508C9.42758 2.08736 9.53542 2.00698 9.6582 2.00684H9.70801C9.89554 2.00684 10.0288 2.18826 9.97266 2.36719L8.92773 5.7002C8.8914 5.81601 8.78349 5.89551 8.66211 5.89551H8.37695C8.25485 5.89551 8.14706 5.815 8.11133 5.69824L7.09082 2.36523C7.03644 2.1869 7.17002 2.00708 7.35645 2.00684H7.42285Z" fill="#F2F2F2"/>
    <path fill-rule="evenodd" clip-rule="evenodd" d="M11.8926 2.00684C12.0103 2.00684 12.116 2.08042 12.1553 2.19141L13.333 5.52441C13.3969 5.70517 13.263 5.89551 13.0713 5.89551H12.9961C12.8758 5.89551 12.7687 5.81751 12.7314 5.70312L12.459 4.86621H11.0342L10.7617 5.70312C10.7245 5.81738 10.6182 5.89533 10.498 5.89551H10.4463C10.255 5.89523 10.1212 5.70588 10.1846 5.52539L11.3594 2.19141C11.3987 2.08054 11.5034 2.00684 11.6211 2.00684H11.8926ZM11.2041 4.34863H12.2939L11.7598 2.67676H11.7441L11.2041 4.34863Z" fill="#F2F2F2"/>
    <path d="M15.918 2.00684C16.0712 2.00701 16.1953 2.13088 16.1953 2.28418V2.31641C16.1953 2.46971 16.0712 2.59455 15.918 2.59473H15.0605V5.61719C15.0605 5.7706 14.9356 5.89551 14.7822 5.89551H14.7129C14.5596 5.89534 14.4355 5.7705 14.4355 5.61719V2.59473H13.583C13.4297 2.59462 13.3057 2.46976 13.3057 2.31641V2.28418C13.3057 2.13083 13.4297 2.00694 13.583 2.00684H15.918Z" fill="#F2F2F2"/>
    <path fill-rule="evenodd" clip-rule="evenodd" d="M16.7275 0C17.8232 0 18.5635 0.386475 19.0342 0.930664C19.4887 1.45651 19.6494 2.08098 19.7021 2.50293L19.7041 2.51953L19.7061 2.53223V10.5586C21.6895 11.2134 23.1211 13.0815 23.1211 15.2842C23.1211 18.032 20.8933 20.2598 18.1455 20.2598C16.9502 20.2598 15.853 19.8384 14.9951 19.1357L14.4326 19.4365C14.0448 19.6452 13.5773 19.6454 13.1895 19.4365L12.1904 18.8984C12.1314 18.8667 12.0658 18.8526 12.001 18.8564C11.9463 18.8597 11.8916 18.8759 11.8428 18.9043L10.9834 19.4062C10.5889 19.6361 10.1031 19.6441 9.70117 19.4277L8.70215 18.8906C8.59692 18.834 8.47046 18.834 8.36523 18.8906L7.34961 19.4365C6.96175 19.6453 6.49425 19.6454 6.10645 19.4365L5.13379 18.9131C4.70937 18.6844 4.44451 18.2408 4.44434 17.7588V10.2627H1.31152C0.587677 10.2626 0.000263912 9.67499 0 8.95117V2.37988C0 2.28554 0.0101248 2.17669 0.0419922 2.06348C0.142548 1.70726 0.372781 1.19682 0.775391 0.772461C1.18209 0.343916 1.7677 7.02738e-05 2.56152 0H16.7275ZM18.1455 11.2598C15.9229 11.2598 14.1211 13.0615 14.1211 15.2842C14.1211 17.5068 15.9229 19.3086 18.1455 19.3086C20.3682 19.3086 22.1699 17.5068 22.1699 15.2842C22.1699 13.0615 20.3682 11.2598 18.1455 11.2598ZM4.81543 0.957031C5.19254 1.38376 5.40039 1.88872 5.40039 2.28418V17.7588C5.40048 17.8245 5.41854 17.888 5.45117 17.9424C5.4834 17.9961 5.52981 18.0415 5.58691 18.0723L6.55957 18.5957C6.66466 18.6521 6.79134 18.652 6.89648 18.5957L7.91211 18.0488C8.30005 17.84 8.76733 17.84 9.15527 18.0488L10.1543 18.5869C10.2633 18.6454 10.3951 18.6431 10.502 18.5811L11.3613 18.0791L11.5137 18.0039C11.7109 17.921 11.9241 17.8876 12.1338 17.9053C12.3097 17.9201 12.4832 17.9712 12.6436 18.0576L13.6426 18.5957C13.7477 18.6523 13.8744 18.6519 13.9795 18.5957L14.2334 18.459L14.2891 18.4287L14.1611 18.2656C13.5384 17.4348 13.1699 16.4023 13.1699 15.2842C13.1699 13.7698 13.8467 12.4136 14.9141 11.501H6.58887C6.40817 11.5006 6.26174 11.3536 6.26172 11.1729C6.26195 10.9923 6.4083 10.8461 6.58887 10.8457H15.8945C16.5705 10.5022 17.3354 10.3086 18.1455 10.3086C18.35 10.3086 18.5518 10.3207 18.75 10.3447V2.59766C18.7073 2.28216 18.589 1.87778 18.3105 1.55566C18.0403 1.24329 17.5762 0.957031 16.7275 0.957031H4.81543ZM2.56152 0.957031C1.62052 0.957172 1.11717 1.76958 0.960938 2.32324C0.959744 2.32805 0.95895 2.336 0.958008 2.34766C0.957279 2.35619 0.956055 2.36711 0.956055 2.37988V8.95117C0.956318 9.14728 1.11551 9.30651 1.31152 9.30664H4.44434V2.28418C4.44409 2.16139 4.34365 1.82516 4.0293 1.51074C3.73438 1.21594 3.2644 0.957031 2.56152 0.957031Z" fill="#F2F2F2"/>
</svg>
