<?xml version="1.0" encoding="UTF-8"?>
<svg version="1.1" xmlns="http://www.w3.org/2000/svg" width="100" height="100">
    <path d="M0 0 C2.20703125 1.35546875 2.20703125 1.35546875 4 4 C4.63518182 7.57655643 4.69688586 11.12375293 4.75 14.75 C4.77964844 15.73355469 4.80929688 16.71710937 4.83984375 17.73046875 C4.91042411 20.15372776 4.96317701 22.57603154 5 25 C5.94101562 24.97164062 6.88203125 24.94328125 7.8515625 24.9140625 C11.37018242 25.01010423 12.54590915 25.54590915 15 28 C15 28.66 15 29.32 15 30 C16.11375 29.814375 17.2275 29.62875 18.375 29.4375 C22 29 22 29 24 30 C23.95359375 28.97519531 23.9071875 27.95039062 23.859375 26.89453125 C23.82183989 25.53388344 23.78544159 24.17320395 23.75 22.8125 C23.69972656 21.80219727 23.69972656 21.80219727 23.6484375 20.77148438 C23.57851261 17.18783373 23.91167483 15.1475343 25.765625 12.05078125 C28.10004473 9.90817572 28.89727521 9.31439991 32 9.375 C32.66 9.36210937 33.32 9.34921875 34 9.3359375 C37.35723333 10.45064388 38.19140716 11.93434972 40 15 C40.63357393 19.17258631 40.6080541 23.32087309 40.6015625 27.53515625 C40.61013275 28.76479599 40.618703 29.99443573 40.62753296 31.26133728 C40.63901488 33.86454815 40.64002346 36.46782319 40.63134766 39.07104492 C40.62506057 43.02441375 40.67182815 46.9747393 40.72265625 50.92773438 C40.72720611 53.46353792 40.72860743 55.99934945 40.7265625 58.53515625 C40.74498199 59.70434097 40.76340149 60.8735257 40.78237915 62.07814026 C40.68063021 71.259687 38.26347309 79.04833724 32.18395996 86.10917664 C27.39765084 90.68307173 21.99908916 90.72943194 15.63671875 90.72265625 C14.39535156 90.69042969 13.15398438 90.65820312 11.875 90.625 C10.62589844 90.63144531 9.37679687 90.63789062 8.08984375 90.64453125 C-3.02086386 90.51409605 -3.02086386 90.51409605 -8 86 C-9.21236328 85.06220703 -9.21236328 85.06220703 -10.44921875 84.10546875 C-15.73668272 79.57467502 -19.50006663 75.94934034 -20.234375 68.6796875 C-20.4042772 62.98796376 -19.81790537 57.33777598 -19.1875 51.6875 C-19.11764893 51.0179126 -19.04779785 50.3483252 -18.97583008 49.65844727 C-18.42409424 45.25279538 -17.42507558 41.73653836 -15 38 C-12.89526367 37.33862305 -12.89526367 37.33862305 -11 37 C-11.01571045 35.98574951 -11.0314209 34.97149902 -11.04760742 33.92651367 C-11.10190319 30.16389913 -11.13634851 26.40131922 -11.16479492 22.63842773 C-11.17988243 21.00978777 -11.20035506 19.38118844 -11.22631836 17.75268555 C-11.26270449 15.41184465 -11.2797262 13.07154081 -11.29296875 10.73046875 C-11.30845261 10.00224411 -11.32393646 9.27401947 -11.33988953 8.52372742 C-11.34085801 5.61527724 -11.34002596 3.52273037 -9.7277832 1.04418945 C-6.74677996 -0.7573862 -3.30810789 -0.80639098 0 0 Z " fill="#F9E4B5" transform="translate(35,6)"/>
    <path d="M0 0 C2.20703125 1.35546875 2.20703125 1.35546875 4 4 C4.63518182 7.57655643 4.69688586 11.12375293 4.75 14.75 C4.77964844 15.73355469 4.80929688 16.71710937 4.83984375 17.73046875 C4.91042411 20.15372776 4.96317701 22.57603154 5 25 C5.94101562 24.97164062 6.88203125 24.94328125 7.8515625 24.9140625 C11.37018242 25.01010423 12.54590915 25.54590915 15 28 C15 28.66 15 29.32 15 30 C16.11375 29.814375 17.2275 29.62875 18.375 29.4375 C22 29 22 29 24 30 C23.95359375 28.97519531 23.9071875 27.95039062 23.859375 26.89453125 C23.82183989 25.53388344 23.78544159 24.17320395 23.75 22.8125 C23.69972656 21.80219727 23.69972656 21.80219727 23.6484375 20.77148438 C23.57851261 17.18783373 23.91167483 15.1475343 25.765625 12.05078125 C28.10004473 9.90817572 28.89727521 9.31439991 32 9.375 C32.66 9.36210937 33.32 9.34921875 34 9.3359375 C37.35723333 10.45064388 38.19140716 11.93434972 40 15 C40.63357393 19.17258631 40.6080541 23.32087309 40.6015625 27.53515625 C40.61013275 28.76479599 40.618703 29.99443573 40.62753296 31.26133728 C40.63901488 33.86454815 40.64002346 36.46782319 40.63134766 39.07104492 C40.62506057 43.02441375 40.67182815 46.9747393 40.72265625 50.92773438 C40.72720611 53.46353792 40.72860743 55.99934945 40.7265625 58.53515625 C40.74498199 59.70434097 40.76340149 60.8735257 40.78237915 62.07814026 C40.68063021 71.259687 38.26347309 79.04833724 32.18395996 86.10917664 C27.39765084 90.68307173 21.99908916 90.72943194 15.63671875 90.72265625 C14.39535156 90.69042969 13.15398438 90.65820312 11.875 90.625 C10.62589844 90.63144531 9.37679687 90.63789062 8.08984375 90.64453125 C-3.02086386 90.51409605 -3.02086386 90.51409605 -8 86 C-9.21236328 85.06220703 -9.21236328 85.06220703 -10.44921875 84.10546875 C-15.73668272 79.57467502 -19.50006663 75.94934034 -20.234375 68.6796875 C-20.4042772 62.98796376 -19.81790537 57.33777598 -19.1875 51.6875 C-19.11764893 51.0179126 -19.04779785 50.3483252 -18.97583008 49.65844727 C-18.42409424 45.25279538 -17.42507558 41.73653836 -15 38 C-12.89526367 37.33862305 -12.89526367 37.33862305 -11 37 C-11.01571045 35.98574951 -11.0314209 34.97149902 -11.04760742 33.92651367 C-11.10190319 30.16389913 -11.13634851 26.40131922 -11.16479492 22.63842773 C-11.17988243 21.00978777 -11.20035506 19.38118844 -11.22631836 17.75268555 C-11.26270449 15.41184465 -11.2797262 13.07154081 -11.29296875 10.73046875 C-11.30845261 10.00224411 -11.32393646 9.27401947 -11.33988953 8.52372742 C-11.34085801 5.61527724 -11.34002596 3.52273037 -9.7277832 1.04418945 C-6.74677996 -0.7573862 -3.30810789 -0.80639098 0 0 Z M27 15 C26.69028913 17.11995758 26.69028913 17.11995758 26.72875977 19.58569336 C26.71857315 20.53685532 26.70838654 21.48801727 26.69789124 22.46800232 C26.69575119 23.49820999 26.69361115 24.52841766 26.69140625 25.58984375 C26.66624946 27.75716419 26.64085138 29.92448183 26.61523438 32.09179688 C26.5864527 35.51976828 26.56244428 38.94769127 26.54370117 42.37573242 C26.52210565 45.6765252 26.48267177 48.97674703 26.44140625 52.27734375 C26.44129044 53.30552719 26.44117462 54.33371063 26.4410553 55.39305115 C26.42771652 56.34736526 26.41437775 57.30167938 26.40063477 58.28491211 C26.39302879 59.54494301 26.39302879 59.54494301 26.38526917 60.83042908 C25.90995192 63.50708887 25.1680313 64.39758188 23 66 C19.84673574 66.39415803 17.88924432 66.58260835 15.1875 64.8125 C13.72461964 62.57968261 13.35494045 60.62655933 13 58 C10.36 58.33 7.72 58.66 5 59 C4.67 62.63 4.34 66.26 4 70 C3.92523438 69.21496094 3.85046875 68.42992187 3.7734375 67.62109375 C2.8593657 60.31748086 1.47718415 55.97113996 -4 51 C-4.66 50.34 -5.32 49.68 -6 49 C-5.38511719 48.90203125 -4.77023438 48.8040625 -4.13671875 48.703125 C0.82367602 47.83907283 0.82367602 47.83907283 5.0625 45.3125 C6.34829156 42.14088083 6.19521275 39.3836876 6 36 C2.60663158 35.76325337 0.58026107 35.64878935 -2.375 37.4375 C-4.99235368 38.99544862 -6.24447743 39.27615186 -9.1875 39.5625 C-13.01607489 39.60148679 -13.01607489 39.60148679 -15 42 C-15.42842719 44.98727128 -15.42842719 44.98727128 -15.5625 48.375 C-15.90889472 54.63838213 -15.90889472 54.63838213 -16.5078125 57.015625 C-17.95721978 62.85926706 -17.96508337 69.71889385 -15.625 75.25 C-8.317014 83.76050074 -8.317014 83.76050074 1.3190918 88.17700195 C4.44199702 88.24344675 7.5640037 88.28495594 10.6875 88.3125 C11.76451172 88.34150391 12.84152344 88.37050781 13.95117188 88.40039062 C20.55119566 88.45299658 24.71119905 88.07371122 30 84 C31.99702041 81.83028794 31.99702041 81.83028794 33.375 79.4375 C33.85710937 78.67308594 34.33921875 77.90867187 34.8359375 77.12109375 C36.84829244 73.45428592 37.12958531 70.57146181 37.14526367 66.45874023 C37.15164352 65.32423935 37.15802338 64.18973846 37.16459656 63.02085876 C37.16570938 61.79581131 37.1668222 60.57076385 37.16796875 59.30859375 C37.17129715 58.05240738 37.17462555 56.79622101 37.17805481 55.50196838 C37.18312079 52.84478208 37.18589537 50.18769808 37.18530273 47.53051758 C37.18520089 44.12174544 37.19887866 40.71318058 37.21607494 37.30445766 C37.22984493 34.05584397 37.22928283 30.8072327 37.23046875 27.55859375 C37.23765427 26.33152206 37.24483978 25.10445038 37.25224304 23.8401947 C37.2476281 22.14317162 37.2476281 22.14317162 37.24291992 20.41186523 C37.24434494 19.4127562 37.24576996 18.41364716 37.24723816 17.38426208 C37.23387266 14.81360434 37.23387266 14.81360434 35 13 C30.49519723 12.4895042 30.49519723 12.4895042 27 15 Z " fill="#223F39" transform="translate(35,6)"/>
    <path d="M0 0 C0.66 0.99 1.32 1.98 2 3 C1.67 3.33 1.34 3.66 1 4 C0.84019563 6.44608998 0.74070553 8.86731058 0.68359375 11.31640625 C0.66281265 12.04746078 0.64203156 12.77851532 0.62062073 13.53172302 C0.55504976 15.87521656 0.49620568 18.21882539 0.4375 20.5625 C0.39432192 22.14779855 0.35070787 23.73308529 0.30664062 25.31835938 C0.1993608 29.21212037 0.0981151 33.10599772 0 37 C0.99 37.33 1.98 37.66 3 38 C1.35 38 -0.3 38 -2 38 C-0.35 38.33 1.3 38.66 3 39 C3 39.33 3 39.66 3 40 C0.94921875 40.22786458 -1.1015625 40.45572917 -3.15234375 40.68359375 C-5.01140229 40.81886614 -5.01140229 40.81886614 -6 42 C-6.2108982 44.10019454 -6.36877227 46.20582622 -6.5 48.3125 C-6.89285593 54.57714896 -6.89285593 54.57714896 -7.51171875 57.01953125 C-8.973433 62.94824424 -8.97279105 69.81122015 -6.5 75.375 C0.43951573 83.12777199 0.43951573 83.12777199 9.43261719 87.29052734 C12.53885783 87.33977391 15.64333859 87.37131912 18.75 87.375 C19.8225 87.39949219 20.895 87.42398438 22 87.44921875 C28.56424486 87.47347089 32.73109192 87.03290418 38 83 C39.7761016 81.06058544 39.7761016 81.06058544 40.875 78.9375 C41.26429687 78.26589844 41.65359375 77.59429687 42.0546875 76.90234375 C43.85267046 73.28408878 44.12623438 70.42654744 44.12939453 66.44287109 C44.13412277 64.73627823 44.13412277 64.73627823 44.13894653 62.99520874 C44.1369223 61.76702423 44.13489807 60.53883972 44.1328125 59.2734375 C44.13376923 58.01487946 44.13472595 56.75632141 44.13571167 55.45962524 C44.13639259 52.7982439 44.13504499 50.1369542 44.13037109 47.47558594 C44.12466239 44.05780566 44.12796226 40.64010371 44.13394356 37.22232628 C44.13841558 33.96852716 44.13528973 30.71473764 44.1328125 27.4609375 C44.13483673 26.22870453 44.13686096 24.99647156 44.13894653 23.72689819 C44.13579437 22.59547394 44.13264221 21.46404968 44.12939453 20.29833984 C44.12859894 19.29701019 44.12780334 18.29568054 44.12698364 17.26400757 C44.25403588 15.03190281 44.25403588 15.03190281 43 14 C40 13.83333333 40 13.83333333 37 14 C35.40134037 15.59865963 35.83516469 17.30456032 35.79467773 19.51977539 C35.77473251 20.48069595 35.75478729 21.44161652 35.73423767 22.43165588 C35.70916893 23.99882607 35.70916893 23.99882607 35.68359375 25.59765625 C35.66281265 26.66165146 35.64203156 27.72564667 35.62062073 28.82188416 C35.55500746 32.2353544 35.49618577 35.64890429 35.4375 39.0625 C35.39432597 41.37045109 35.35071206 43.678394 35.30664062 45.98632812 C35.19931416 51.65746682 35.09757008 57.32868552 35 63 C32.32521083 60.32521083 32.72174784 58.92313519 32.65625 55.1875 C32.62660156 54.02992187 32.59695312 52.87234375 32.56640625 51.6796875 C32.52213542 49.2265625 32.47786458 46.7734375 32.43359375 44.3203125 C32.40394531 43.16273437 32.37429687 42.00515625 32.34375 40.8125 C32.32505859 39.74644531 32.30636719 38.68039063 32.28710938 37.58203125 C32.25407391 34.83765377 32.25407391 34.83765377 30 33 C27.42938689 32.35232207 27.42938689 32.35232207 25 32 C25.495 30.515 25.495 30.515 26 29 C27.98 29.33 29.96 29.66 32 30 C31.95359375 28.97519531 31.9071875 27.95039062 31.859375 26.89453125 C31.82183989 25.53388344 31.78544159 24.17320395 31.75 22.8125 C31.69972656 21.80219727 31.69972656 21.80219727 31.6484375 20.77148438 C31.57851261 17.18783373 31.91167483 15.1475343 33.765625 12.05078125 C36.10004473 9.90817572 36.89727521 9.31439991 40 9.375 C40.66 9.36210937 41.32 9.34921875 42 9.3359375 C45.35723333 10.45064388 46.19140716 11.93434972 48 15 C48.63357393 19.17258631 48.6080541 23.32087309 48.6015625 27.53515625 C48.61013275 28.76479599 48.618703 29.99443573 48.62753296 31.26133728 C48.63901488 33.86454815 48.64002346 36.46782319 48.63134766 39.07104492 C48.62506057 43.02441375 48.67182815 46.9747393 48.72265625 50.92773438 C48.72720611 53.46353792 48.72860743 55.99934945 48.7265625 58.53515625 C48.74498199 59.70434097 48.76340149 60.8735257 48.78237915 62.07814026 C48.68063021 71.259687 46.26347309 79.04833724 40.18395996 86.10917664 C35.39765084 90.68307173 29.99908916 90.72943194 23.63671875 90.72265625 C22.39535156 90.69042969 21.15398438 90.65820312 19.875 90.625 C18.62589844 90.63144531 17.37679687 90.63789062 16.08984375 90.64453125 C4.97913614 90.51409605 4.97913614 90.51409605 0 86 C-1.21236328 85.06220703 -1.21236328 85.06220703 -2.44921875 84.10546875 C-7.73668272 79.57467502 -11.50006663 75.94934034 -12.234375 68.6796875 C-12.4042772 62.98796376 -11.81790537 57.33777598 -11.1875 51.6875 C-11.11764893 51.0179126 -11.04779785 50.3483252 -10.97583008 49.65844727 C-10.42409424 45.25279538 -9.42507558 41.73653836 -7 38 C-4.89526367 37.33862305 -4.89526367 37.33862305 -3 37 C-3.01571045 35.98574951 -3.0314209 34.97149902 -3.04760742 33.92651367 C-3.10190319 30.16389913 -3.13634851 26.40131922 -3.16479492 22.63842773 C-3.17988243 21.00978777 -3.20035506 19.38118844 -3.22631836 17.75268555 C-3.26270449 15.41184465 -3.2797262 13.07154081 -3.29296875 10.73046875 C-3.30845261 10.00224411 -3.32393646 9.27401947 -3.33988953 8.52372742 C-3.34158031 3.44615804 -3.34158031 3.44615804 -1.48168945 1.0168457 C-0.99273193 0.68128662 -0.50377441 0.34572754 0 0 Z " fill="#2B463E" transform="translate(27,6)"/>
    <path d="M0 0 C0.66 -0.01289063 1.32 -0.02578125 2 -0.0390625 C5.10920327 0.99329015 6.19734943 2.95329382 8 5.625 C8.48101807 8.39021301 8.48101807 8.39021301 8.45410156 11.42504883 C8.45364838 13.13625664 8.45364838 13.13625664 8.45318604 14.8820343 C8.43254089 16.10303329 8.41189575 17.32403229 8.390625 18.58203125 C8.38496521 19.84013107 8.37930542 21.0982309 8.37347412 22.39445496 C8.35490044 25.72722785 8.31901116 29.05889216 8.2746582 32.39135742 C8.23362121 35.79661515 8.21544527 39.20198775 8.1953125 42.60742188 C8.1512313 49.28025293 8.08430697 55.9525625 8 62.625 C6.515 63.12 6.515 63.12 5 63.625 C4.98969254 62.90059219 4.97938507 62.17618439 4.96876526 61.42982483 C4.87095232 54.61648098 4.76846141 47.803222 4.66066074 40.99002934 C4.60540045 37.48695645 4.55197566 33.98387527 4.50268555 30.48071289 C4.44599332 26.45709856 4.38142599 22.43364469 4.31640625 18.41015625 C4.29969376 17.14663834 4.28298126 15.88312042 4.26576233 14.58131409 C4.24581711 13.420186 4.22587189 12.25905792 4.20532227 11.06274414 C4.18200584 9.5205294 4.18200584 9.5205294 4.15821838 7.94715881 C4.25828129 5.66414647 4.25828129 5.66414647 3 4.625 C0 4.45833333 0 4.45833333 -3 4.625 C-4.59865963 6.22365963 -4.16483531 7.92956032 -4.20532227 10.14477539 C-4.22526749 11.10569595 -4.24521271 12.06661652 -4.26576233 13.05665588 C-4.29083107 14.62382607 -4.29083107 14.62382607 -4.31640625 16.22265625 C-4.33718735 17.28665146 -4.35796844 18.35064667 -4.37937927 19.44688416 C-4.44499254 22.8603544 -4.50381423 26.27390429 -4.5625 29.6875 C-4.60567403 31.99545109 -4.64928794 34.303394 -4.69335938 36.61132812 C-4.80068584 42.28246682 -4.90242992 47.95368552 -5 53.625 C-7.67478917 50.95021083 -7.27825216 49.54813519 -7.34375 45.8125 C-7.38822266 44.07613281 -7.38822266 44.07613281 -7.43359375 42.3046875 C-7.47786458 39.8515625 -7.52213542 37.3984375 -7.56640625 34.9453125 C-7.61087891 33.20894531 -7.61087891 33.20894531 -7.65625 31.4375 C-7.67494141 30.37144531 -7.69363281 29.30539063 -7.71289062 28.20703125 C-7.74592609 25.46265377 -7.74592609 25.46265377 -10 23.625 C-12.57061311 22.97732207 -12.57061311 22.97732207 -15 22.625 C-14.505 21.14 -14.505 21.14 -14 19.625 C-12.02 19.955 -10.04 20.285 -8 20.625 C-8.04640625 19.60019531 -8.0928125 18.57539062 -8.140625 17.51953125 C-8.17816011 16.15888344 -8.21455841 14.79820395 -8.25 13.4375 C-8.28351562 12.76396484 -8.31703125 12.09042969 -8.3515625 11.39648438 C-8.42148739 7.81283373 -8.08832517 5.7725343 -6.234375 2.67578125 C-3.89995527 0.53317572 -3.10272479 -0.06060009 0 0 Z " fill="#244039" transform="translate(67,15.375)"/>
    <path d="M0 0 C3 0.25 3 0.25 5 2.25 C5.46103073 6.71154808 5.32398794 11.20490638 5.3125 15.6875 C5.32861328 16.94111328 5.34472656 18.19472656 5.36132812 19.48632812 C5.36197266 20.68580078 5.36261719 21.88527344 5.36328125 23.12109375 C5.36775269 24.77516235 5.36775269 24.77516235 5.37231445 26.46264648 C5 29.25 5 29.25 3.63745117 31.14477539 C2 32.25 2 32.25 -0.5625 32.0625 C-3 31.25 -3 31.25 -5 29.25 C-5.25878906 26.57617188 -5.25878906 26.57617188 -5.265625 23.21875 C-5.26820312 22.01605469 -5.27078125 20.81335938 -5.2734375 19.57421875 C-5.26570313 18.31222656 -5.25796875 17.05023438 -5.25 15.75 C-5.25773437 14.48800781 -5.26546875 13.22601563 -5.2734375 11.92578125 C-5.27085938 10.72308594 -5.26828125 9.52039063 -5.265625 8.28125 C-5.26336914 7.17330078 -5.26111328 6.06535156 -5.25878906 4.92382812 C-4.87778921 0.98730886 -3.89693512 0.32474459 0 0 Z " fill="#EFDEB0" transform="translate(55,38.75)"/>
    <path d="M0 0 C5.56818182 0.56818182 5.56818182 0.56818182 7 2 C7.28986285 6.2378682 7.31395309 10.4815293 7.35009766 14.72802734 C7.36665961 16.15592749 7.39395386 17.58374464 7.43212891 19.01123047 C7.48686343 21.06782084 7.5087617 23.12246723 7.5234375 25.1796875 C7.54325684 26.41444824 7.56307617 27.64920898 7.58349609 28.92138672 C7 32 7 32 4.71728516 33.92626953 C2 35 2 35 -2 35 C-2.04937279 30.33692986 -2.08570627 25.67401127 -2.10986328 21.01074219 C-2.11993188 19.42380117 -2.13358767 17.83687875 -2.15087891 16.25 C-2.17509001 13.97130753 -2.18647422 11.69285994 -2.1953125 9.4140625 C-2.20563507 8.70255035 -2.21595764 7.99103821 -2.22659302 7.25796509 C-2.22699422 5.50368335 -2.12202209 3.75003291 -2 2 C-1.34 1.34 -0.68 0.68 0 0 Z " fill="#F9E6B6" transform="translate(29,8)"/>
    <path d="M0 0 C5.71428571 0.71428571 5.71428571 0.71428571 7 2 C7.28060716 6.13895558 7.23179994 10.29016223 7.25 14.4375 C7.270625 15.60861328 7.29125 16.77972656 7.3125 17.98632812 C7.31765625 19.10330078 7.3228125 20.22027344 7.328125 21.37109375 C7.34214355 22.9168811 7.34214355 22.9168811 7.35644531 24.49389648 C7.23881836 25.32091064 7.12119141 26.1479248 7 27 C4 29 4 29 1.375 28.6875 C-1 28 -1 28 -2 27 C-2.57515373 21.13343193 -1.23604934 18.75294747 2 14 C2.66790364 10.8715965 2.66790364 10.8715965 2 8 C0.11922127 6.08743288 0.11922127 6.08743288 -2 5 C-1.125 1.125 -1.125 1.125 0 0 Z " fill="#F5E3B4" transform="translate(41,34)"/>
    <path d="M0 0 C0.33 0.66 0.66 1.32 1 2 C2.31647119 2.69937532 3.65022151 3.36729133 5 4 C6 5 6 5 6.3125 7.6875 C6 11 6 11 4 13.9375 C1.61648875 17.5872516 1.65815111 19.72688883 2 24 C5.37817425 24.84454356 7.67465243 25.10844919 11 24 C11 26.64 11 29.28 11 32 C10.67 32 10.34 32 10 32 C10 30.35 10 28.7 10 27 C9.34 27.33 8.68 27.66 8 28 C6.00039988 28.039992 3.99952758 28.04346799 2 28 C2 31.63 2 35.26 2 39 C1.01 39.495 1.01 39.495 0 40 C-0.08636719 39.13117188 -0.17273437 38.26234375 -0.26171875 37.3671875 C-1.12174077 30.31342892 -1.72801662 25.8862285 -7 21 C-7.598125 20.38125 -8.19625 19.7625 -8.8125 19.125 C-9.204375 18.75375 -9.59625 18.3825 -10 18 C-8.3603125 17.5359375 -8.3603125 17.5359375 -6.6875 17.0625 C-1.43385793 15.82968784 -1.43385793 15.82968784 2 12 C2.39387788 9.67612053 2.73486085 7.34206251 3 5 C1.35 5 -0.3 5 -2 5 C-1.34 3.35 -0.68 1.7 0 0 Z " fill="#2C473E" transform="translate(38,37)"/>
    <path d="M0 0 C0.66 0.99 1.32 1.98 2 3 C1.67 3.33 1.34 3.66 1 4 C0.84019563 6.44608998 0.74070553 8.86731058 0.68359375 11.31640625 C0.66281265 12.04746078 0.64203156 12.77851532 0.62062073 13.53172302 C0.55504976 15.87521656 0.49620568 18.21882539 0.4375 20.5625 C0.39432192 22.14779855 0.35070787 23.73308529 0.30664062 25.31835938 C0.1993608 29.21212037 0.0981151 33.10599772 0 37 C0.99 37.33 1.98 37.66 3 38 C1.35 38 -0.3 38 -2 38 C-0.35 38.33 1.3 38.66 3 39 C3 39.33 3 39.66 3 40 C-1.455 40.495 -1.455 40.495 -6 41 C-5.67 39.68 -5.34 38.36 -5 37 C-4.34 37 -3.68 37 -3 37 C-3.01571045 35.98574951 -3.0314209 34.97149902 -3.04760742 33.92651367 C-3.10190319 30.16389913 -3.13634851 26.40131922 -3.16479492 22.63842773 C-3.17988243 21.00978777 -3.20035506 19.38118844 -3.22631836 17.75268555 C-3.26270449 15.41184465 -3.2797262 13.07154081 -3.29296875 10.73046875 C-3.30845261 10.00224411 -3.32393646 9.27401947 -3.33988953 8.52372742 C-3.34158031 3.44615804 -3.34158031 3.44615804 -1.48168945 1.0168457 C-0.99273193 0.68128662 -0.50377441 0.34572754 0 0 Z " fill="#506353" transform="translate(27,6)"/>
    <path d="M0 0 C0.33 0.66 0.66 1.32 1 2 C2.31647119 2.69937532 3.65022151 3.36729133 5 4 C6 5 6 5 6.3125 7.6875 C5.92646898 11.77942883 4.30406878 13.64862723 2 17 C1.20929452 20.23038842 1.20929452 20.23038842 1 23 C0.34 22.34 -0.32 21.68 -1 21 C-2.32 21 -3.64 21 -5 21 C-5 20.34 -5 19.68 -5 19 C-6.32 18.34 -7.64 17.68 -9 17 C-8.37351562 16.89042969 -7.74703125 16.78085937 -7.1015625 16.66796875 C-6.28429687 16.50941406 -5.46703125 16.35085937 -4.625 16.1875 C-3.81289063 16.03667969 -3.00078125 15.88585938 -2.1640625 15.73046875 C0.35820641 15.12455058 0.35820641 15.12455058 2 12 C2.39387788 9.67612053 2.73486085 7.34206251 3 5 C1.35 5 -0.3 5 -2 5 C-1.34 3.35 -0.68 1.7 0 0 Z " fill="#506253" transform="translate(38,37)"/>
    <path d="M0 0 C2.87353033 9.07774353 -0.11136212 21.20969527 -3 30 C-3.66 30.33 -4.32 30.66 -5 31 C-5.20686786 25.20769981 -4.84743439 19.56808013 -4.1875 13.8125 C-4.11740723 13.13574219 -4.04731445 12.45898438 -3.97509766 11.76171875 C-3.42775914 7.30435117 -2.21165009 3.89613975 0 0 Z " fill="#234039" transform="translate(20,44)"/>
    <path d="M0 0 C0.99 0.33 1.98 0.66 3 1 C3 1.66 3 2.32 3 3 C2.34 3 1.68 3 1 3 C1 21.48 1 39.96 1 59 C0.67 59 0.34 59 0 59 C0 39.53 0 20.06 0 0 Z " fill="#1E3B35" transform="translate(72,20)"/>
    <path d="M0 0 C0.33 1.32 0.66 2.64 1 4 C-2.46923881 6.31282587 -3.92205575 6.42478586 -8 6 C-9.875 4.5 -9.875 4.5 -11 3 C-10.34 2.34 -9.68 1.68 -9 1 C-8.34 1.66 -7.68 2.32 -7 3 C-3.70285207 2.67028521 -2.3773161 2.3773161 0 0 Z " fill="#374E44" transform="translate(60,67)"/>
    <path d="M0 0 C0.33 0.66 0.66 1.32 1 2 C2.31647119 2.69937532 3.65022151 3.36729133 5 4 C6 5 6 5 6.0625 8.0625 C6.041875 9.031875 6.02125 10.00125 6 11 C5.01 11.495 5.01 11.495 4 12 C3.67 10.02 3.34 8.04 3 6 C1.35 5.67 -0.3 5.34 -2 5 C-1.34 3.35 -0.68 1.7 0 0 Z " fill="#465B4D" transform="translate(38,37)"/>
    <path d="M0 0 C3.3125 -0.25 3.3125 -0.25 7 0 C8.9375 2 8.9375 2 10 4 C9.01 4.33 8.02 4.66 7 5 C6.67 4.67 6.34 4.34 6 4 C3.66702567 3.95907063 1.33294775 3.95758277 -1 4 C-0.67 2.68 -0.34 1.36 0 0 Z " fill="#344D43" transform="translate(64,16)"/>
    <path d="M0 0 C0.99 0.66 1.98 1.32 3 2 C3 2.66 3 3.32 3 4 C3.66 4 4.32 4 5 4 C5 4.66 5 5.32 5 6 C6.65 6 8.3 6 10 6 C10 6.33 10 6.66 10 7 C4.25 8.125 4.25 8.125 2 7 C2 6.01 2 5.02 2 4 C0.68 3.34 -0.64 2.68 -2 2 C-1.34 2 -0.68 2 0 2 C0 1.34 0 0.68 0 0 Z " fill="#3C5348" transform="translate(47,32)"/>
    <path d="M0 0 C3.16115776 1.36983503 3.9927092 1.9890638 6 5 C4.68 5 3.36 5 2 5 C0.25 3 0.25 3 -1 1 C-0.67 0.67 -0.34 0.34 0 0 Z " fill="#364E44" transform="translate(25,87)"/>
    <path d="M0 0 C2.31 1.65 4.62 3.3 7 5 C6.67 5.66 6.34 6.32 6 7 C3.5625 6.3125 3.5625 6.3125 1 5 C0.1875 2.375 0.1875 2.375 0 0 Z " fill="#26423B" transform="translate(19,81)"/>
    <path d="M0 0 C1.98 0 3.96 0 6 0 C5.67 0.99 5.34 1.98 5 3 C6.32 3.33 7.64 3.66 9 4 C8.34 4 7.68 4 7 4 C6.67 4.66 6.34 5.32 6 6 C3.97945196 4.35830472 1.97956942 2.69088222 0 1 C0 0.67 0 0.34 0 0 Z " fill="#385045" transform="translate(28,55)"/>
    <path d="M0 0 C5.75 -0.125 5.75 -0.125 8 1 C8 1.99 8 2.98 8 4 C6.68 4 5.36 4 4 4 C4 3.34 4 2.68 4 2 C2.68 1.34 1.36 0.68 0 0 Z " fill="#6E7A65" transform="translate(29,54)"/>
    <path d="" fill="#1A3A3F" transform="translate(0,0)"/>
</svg>
